<svg xmlns="http://www.w3.org/2000/svg" xmlns:xlink="http://www.w3.org/1999/xlink" width="227" height="70" viewBox="0 0 227 70">
    <defs>
        <path id="k2bdrzh54c" d="M0.082 0.54L132.383 0.54 132.383 172.924 0.082 172.924z"/>
        <path id="yxjylqradd" d="M0.082 0.31L710.168 0.31 710.168 696.679 0.082 696.679z"/>
        <path id="jlo2yw9nrf" d="M0.082 0.31L710.168 0.31 710.168 696.679 0.082 696.679z"/>
        <path id="1deb7waqah" d="M0.082 0.42L124.801 0.42 124.801 56.101 0.082 56.101z"/>
        <rect id="9td9boiq5a" width="226.67" height="68.645" x="0" y="0" rx="2"/>
    </defs>
    <g fill="none" fill-rule="evenodd">
        <g>
            <g>
                <g>
                    <g transform="translate(-108 -4919) translate(100 4880) translate(0 31.4) translate(8 7.845)">
                        <mask id="gv2jn39zib" fill="#fff">
                            <use xlink:href="#9td9boiq5a"/>
                        </mask>
                        <use fill="#D8D8D8" xlink:href="#9td9boiq5a"/>
                        <g mask="url(#gv2jn39zib)">
                            <g>
                                <path fill="#EFEFED" d="M18.785 795.561L729.08 795.561 729.08 99.013 18.785 99.013z" transform="translate(-26 -434.426)"/>
                                <g>
                                    <path fill="#C1EBB3" d="M125.606 512.208L104.053 494.295 95.441 492.965 87.533 496.471 85.526 504.429 87.456 512.413 106.296 530.633zM152.141 471.572L163.992 511.877 186.955 554.254 214.093 562.443 239.254 521.81 252.294 504.507 185.076 468.271zM7.782 403.42c1.656 1.226 91.863 38.698 91.863 38.698l50.676 11.833 1.33-33.585-21.737-24.924-41.125-50.975-11.272-14.535-18.005-48.365-57.72 9.827 5.99 112.027z" transform="translate(-26 -434.426)"/>
                                    <g transform="translate(-26 -434.426) translate(19.268 281.027)"/>
                                    <path fill="#8FD5E8" d="M171.625 495.539c2.557 1.023 7.358-1.177 13.568.41 6.21 1.586 13.465 4.247 14.613 8.956 1.148 4.708-.365 4.043-2.558 4.196-2.191.154-3.705 3.43-2.765 5.989.94 2.559 3.653 7.779 6.21 7.37 2.557-.41.261-4.658 1.149-7.473.887-2.815 4.957-3.02 5.166-8.137.209-5.119-4.488-10.134-11.534-12.744-7.045-2.61-16.282-2.303-18.996-1.587-2.713.716-7.15 2.253-4.853 3.02" transform="translate(-26 -434.426)"/>
                                    <g transform="translate(-26 -434.426) translate(19.268 18.166)">
                                        <mask id="6j2ioeb25e" fill="#fff">
                                            <use xlink:href="#yxjylqradd"/>
                                        </mask>
                                        <path fill="#FFF" d="M757.522 264.865l-87.492 17.142-7.577 2.157-1.621-5.486 7.806-2.223.24-.067 87.502-17.143 1.142 5.62zM510.365 746.617c-1.268-1.58-2.402-2.919-3.614-4.35-10.025-11.834-24.834-29.312-23.306-58.161 1.497-28.266-7.016-27.368-7.039-27.366l-.388-5.71c.043-.002 15.092-1.421 13.249 33.367-1.41 26.636 12.525 43.084 21.959 54.22 1.442 1.7 2.79 3.292 3.727 4.463l-4.588 3.537zM526.018 72.92c-6.284-9.606-12.113-18.254-15.653-22.674-1.268-1.58-2.402-2.92-3.614-4.35-3.823-4.514-8.343-9.85-12.387-16.324-9.168 2.979-43.733 14.252-48.641 16.488-2.437 1.109-4.026 2.08-4.661 3.023-.297.44-.2 1.061.325 1.953 1.855 3.141 11.183 26.185 16.939 40.402 1.04 2.572 1.948 4.814 2.821 6.95 6.45-2.527 13.62-5.306 20.915-8.134 16.296-6.318 33.225-12.88 43.956-17.334zM191.545 45.558l22.922-14.882.217-.125c.057-.03 4.813-2.57 12.198-6.52-25.518-22.94-80.246-71.466-87.5-72.32-7.86-.923-29.548 3.774-38.264 5.776l32.312 57.287 3.164 5.637.015-.008 21.135 43.07c10.148-4.114 32.101-16.922 33.801-17.915zM92.018 256.13l-46.961 9.2c4.363 12.243 14.826 41.277 18.362 48.213 1.28 2.512 7.69 10.93 16.164 21.64l-.188-.712c.11-.028 15.064-3.867 33.62-8.374L92.018 256.13zm9.112 397.724l15.386 27.28 17.798-33.077c-9.777.617-25.942 4.134-33.184 5.797zm-55.593-40.362l19.371-14.117-1.75-61.509-28.66 3.194 11.039 72.432zm58.526-47.862l-35.048-26.705 1.585 55.678 33.463-28.973zm52.911 40.314l-48.23-36.75-37.2 32.207L98.2 648.657c6.904-1.61 28.535-6.447 39.236-6.401l19.54-36.312zm188.347-286.09c-16.906 3.414-37.277 5.074-37.35 5.079l-.48-5.71c.07-.005 19.043-1.551 35.187-4.677l-40.502-81.31-64.67 26.556c-2.297 2.632-12.522 14.261-15.104 15.739-2.06 1.179-14.115 4.634-20.394 6.392 27.438 41.946 70.699 108.33 72.21 112.18.604 1.543 1.066 2.226 1.495 2.281.819.105 2.292-.566 4.38-1.712l1.26-.691h.012c9.817-5.387 61.886-33.952 78.909-44.11l-14.953-30.017zm239.28 347.372c8.547-4.505 23.202-14.302 38.12-24.891 22.669-16.089 45.736-33.836 48.922-37.631 5.026-5.984 13.05-29.945 14.368-33.95-.312-3.285-2.068-20.4-5.104-23.857-3.778-4.305-31.593-24.409-31.673-24.466l-.291-.211-.223-.26-54.88-64.058c-3.382 6.774-10.813 21.304-19.933 36.97-2.688 4.62-7.363 11.162-13.052 18.596 4.159 5.943 7.687 12.216 11.042 20.047 3.625 8.461 7.074 18.825 10.946 32.693 4.744 16.994 3.396 47.892 2.335 72.217-.54 12.346-1.002 22.954-.577 28.801zm-23.044-255.902l32.495 37.93 64.922-25.508 2.17 5.307-59.375 23.329c15.781 4.942 50.821 15.786 56.83 16.544 7.472.942 14.935-1.165 14.956-1.172l.251-.055 64.785-12.356 1.096 5.62-64.63 12.326c-.961.26-9.013 2.333-17.188 1.301-6.226-.785-39.297-10.964-55.963-16.168l51.068 59.608c2.788 2.02 24.995 18.153 31.24 23.996l93.464-10.412.639 5.687-90.756 10.11c3.006 8.298 4.319 23.346 4.324 23.399l.048.55-.186.569c-.027.084-9.396 29.009-15.605 36.402-3.458 4.118-27.031 22.34-49.996 38.64-13.5 9.582-26.862 18.557-35.923 23.708 7.736 2.015 14.94 3.681 20.122 4.454 8.79 1.312 23.28.76 37.015-.67 15.215-1.585 29.304-4.182 33.456-6.456l95.396-69.52 3.47 4.59-95.554 69.636-.145.104-.13.076c-4.665 2.667-19.818 5.585-35.876 7.257-14.177 1.476-29.22 2.034-38.5.647-5.87-.875-14.22-2.853-23.016-5.189.313 1.173.644 2.427.99 3.74 3.066 11.615 7.441 28.185 15.864 48.2l-5.388 2.17c-8.574-20.372-13.007-37.166-16.115-48.936-.66-2.497-1.256-4.756-1.872-6.944-18.363-5.09-36.516-10.923-36.6-10.95l-.269-.085-.233-.127-61.304-33.19 2.807-5.016 61.07 33.063c2.164.692 17.4 5.543 33.395 10.044-.449-6.488.013-17.103.549-29.375 1.045-23.948 2.373-54.37-2.13-70.494-3.771-13.513-7.147-23.648-10.717-31.977-2.903-6.777-5.92-12.302-9.378-17.452-21.128 27.009-52.083 62.2-52.203 62.336l-4.407-3.74c.16-.183 55.993-63.65 68.32-84.824 10.267-17.637 18.385-33.849 20.893-38.944l-32.651-38.111 4.475-3.672zm-68.564 58.602c.662-7.51 4.89-28.908 14.863-50.587 6.188-13.45 14.605-27.06 25.792-37.66l4.042 4.12c-10.573 10.018-18.587 23.008-24.514 35.891-9.65 20.974-13.726 41.533-14.36 48.728l-5.823-.492zm-286.376.32l30.453-17.557c-25.127-3.644-103.852 2.014-104.102 2.031l-.412-5.71c.275-.019 92.872-6.684 111.752-.495l138.137-79.643 2.945 4.927-135.145 77.918c9.254 6.43 12.196 15.57 14.565 22.93.48 1.493.936 2.912 1.327 3.967l-5.48 1.949c-.54-1.465-.968-2.793-1.418-4.192-2.279-7.081-5.16-16.033-14.633-21.403l-35.044 20.205-2.945-4.927zm65.696 185.549l-1.091 12.066h.006c-.005.073-1.017 14.098-1.786 29.72 15.279-8.215 29.783-16.05 37.429-20.274l-34.558-21.512zm-8.862 45.006c.16-3.471.334-6.907.512-10.176l-102.33-81.086-18.362 34.126c15.143 8.148 65.917 53.105 89.013 73.845 8.822-4.721 19.99-10.705 31.167-16.709zm-.55 31.685c-.28-6.19-.1-15.434.269-25.022-9.413 5.054-18.663 10.01-26.353 14.127 4.396 3.965 7.034 6.369 7.078 6.41l-3.973 4.186c-.048-.045-3.261-2.973-8.507-7.705-8.374 4.48-13.884 7.422-13.946 7.455l-2.785-5.015c.057-.031 4.813-2.57 12.198-6.521-24.36-21.899-75.315-67.092-86.211-71.904l-20.78 38.619 16.65 29.522-5.114 2.754-64.505-114.366-92.881 67.687-3.47-4.59 69.653-50.76-11.53-75.657-55.338 6.164-.64-5.687 55.114-6.14-11.068-72.632-51.945 9.908-1.096-5.62 167.332-31.915 1.097 5.62-109.652 20.913 11.137 73.08 29.36-3.27-.01-.348.903-.868 69.434-66.738 4.087 4.075-67.05 64.447 38.16 29.076 49.538-42.889 3.858 4.276-48.715 42.178 50.335 38.352.034.033 100.794 79.87c.554-9.335 1.039-16.06 1.043-16.11l.011-.056 1.364-15.074-76.65-47.713 3.13-4.836 119.266 74.241c8.35-5.607 15.535-17.106 18.308-21.924l-94.637-64.013 3.31-4.702 32.78 22.172 19.94-50.707 5.434 2.06-20.443 51.983 56.256 38.051c.835-6.204 2.028-16.681 1.758-24.258-.422-11.778 1.247-52.288 1.252-52.405l5.822.224c-.004.116-1.666 40.443-1.252 52.002.364 10.193-1.775 25.212-2.41 29.396l12.986 18.898 57.022-87.486c2.642-9.24 3.582-23.133 3.464-37.068-.151-17.778-2.03-35.497-4.304-43.746-.42-1.529-.77-3.39-1.062-5.514-.197-1.442-.365-2.982-.507-4.602l-15.21-2.878c-8.868 4.508-81.28 41.262-93.034 45.22-5.022 1.691-12.947 3.605-21.438 5.426-12.706 2.724-26.779 5.26-34.11 6.5-5.91.999-14.243 1.473-22.594 1.521-9.112.05-18.257-.408-24.282-1.251-11.662-1.631-26.063-7.301-26.105-7.317l2.17-5.308c.039.016 13.775 5.423 24.757 6.96 5.809.813 14.635 1.256 23.437 1.206 8.007-.045 15.988-.499 21.636-1.454 7.247-1.225 21.19-3.739 33.858-6.455 8.284-1.776 15.98-3.632 20.776-5.246 11.286-3.802 81.616-39.476 91.89-44.697l3.23-16.498 5.73 1.075-2.948 15.053 11.84 2.24c-.45-8.931-.432-19.71-.414-29.616.022-12.86.042-24.212-.948-27.61-2.261-7.761-17.944-20.807-17.99-20.846l3.79-4.344c.05.04 17.068 14.187 19.817 23.623 1.197 4.107 1.177 15.862 1.152 29.177-.018 11.14-.039 23.403.638 32.933.168 2.377.378 4.543.636 6.427.252 1.842.558 3.461.925 4.798 2.372 8.606 4.331 26.915 4.486 45.178.124 14.61-.908 29.276-3.805 39.088l-2.797-.795 2.455 1.534-58.617 89.932 21.092 30.696-4.84 3.202-36.554-53.2c-3.778 6.254-11.694 17.934-20.88 23.216-5.377 3.09-24.818 13.595-44.859 24.366-.453 10.643-.718 21.221-.411 27.98l-5.822.246zM264.73 55.66c-.733-5.006-1.47-11.625-1.829-19.545-.28-6.19-.1-15.434.269-25.021-9.414 5.054-18.665 10.01-26.353 14.126 4.397 3.965 7.034 6.369 7.078 6.41l.127.113.113.132 20.595 23.785zm29.143 55.475C279.57 87.752 268.41 69.36 267.17 67.315l-27.373-31.613c-.617-.56-3.681-3.35-8.382-7.59-7.638 4.087-12.891 6.892-13.794 7.375L194.76 50.33l-1.61-2.384 1.495 2.45c-.08.047-27.97 16.408-37.498 19.381-5.549 1.731-29.839 8.132-50.427 13.127C92.646 86.319 80.19 89.1 76.3 89.36c-5.216.349-14.687-3.677-23.884-9.303-3.052-1.868-6.1-3.92-8.973-6.053l44.838 149.419c9.373-2.536 20.22-5.466 31.306-8.454-1.26-10.267-6.1-50.139-6.834-63.104-.856-15.104 7.302-56.173 7.326-56.29l5.73 1.073c-.023.117-8.047 40.529-7.233 54.903.23 4.062.882 10.914 1.706 18.686 20.525-5.014 131.955-32.352 139.787-36.818 7.317-4.172 27.14-17.708 33.804-22.284zm21.372 34.818c-6.258-10.154-12.52-20.357-18.362-29.9-7.014 4.812-26.474 18.085-33.892 22.314-8.6 4.904-123.695 33.12-142.09 37.612 1.598 14.574 3.548 30.674 4.38 37.456 30.823-8.299 61.854-16.59 66.827-17.685 6.252-1.377 30.38-7.217 49.545-12.329 11.572-3.086 21.153-5.847 23.38-7.045 5.564-2.993 40.623-24.526 50.212-30.423zM585.117-25.633c.646 2.215 1.437 5.212 2.334 8.612 3.066 11.615 7.441 28.185 15.864 48.2 1.245 2.958 2.46 5.719 3.63 8.287.68 1.488 1.353 2.928 2.018 4.318 7.9-5.742 15.766-11.096 20.42-13.853 10.637-6.303 29.257-7.284 29.311-7.287l.209-.011.156.011c.166.012 58.072 4.14 64.728 7.967 4.513 2.595 8.326 8.503 12.919 15.62 2.387 3.698 4.999 7.746 8 11.766l-4.703 3.381c-3.089-4.136-5.774-8.298-8.229-12.102-4.178-6.475-7.647-11.85-10.933-13.74-5.289-3.04-58.707-6.931-62.028-7.171-1.945.121-17.594 1.241-26.416 6.468-5.296 3.139-14.942 9.788-23.945 16.478-7.762 5.766-14.997 11.52-18.464 15.005-6.744 6.779-23.658 51.911-26.238 58.861 7.492 21.452 15.165 54.473 15.194 54.598l-5.685 1.276c-.038-.163-13.224-56.896-21.246-68.305-3.25-4.62-8.805-13.24-14.951-22.773-2.56-3.973-5.223-8.106-7.862-12.168-10.92 4.57-28.29 11.304-44.992 17.778-21.049 8.16-41.034 15.908-45.191 18.15-1.347.726-2.432 1.489-3.263 2.277-1.189 1.128-1.856 2.3-2.025 3.48-.173 1.195.14 2.506.92 3.894.577 1.03 1.394 2.084 2.443 3.147 2.935 2.975 8.369 9.882 13.917 17.331 6.608 8.874 13.394 18.532 16.28 23.188 2.907 4.688 8.89 17.113 14.383 28.522 4.706 9.772 9.048 18.79 10.594 21.2 1.04 1.619 4.907 2.414 9.414 3.341 5.948 1.223 12.817 2.634 18.174 7.053 4.365 3.598 8.763 6.414 13.56 8.344 4.758 1.913 9.943 2.966 15.927 3.063 11.202.18 18.037 10.89 20.674 16.02 2.114-.844 4.195-1.595 6.31-2.266-1.168-6.575-4.513-24.541-7.654-33.297-3.84-10.704-23.07-39.136-23.125-39.217l4.863-3.158c.056.084 19.672 29.088 23.765 40.494 3.185 8.878 6.509 26.47 7.79 33.614 8.113-1.938 17.502-2.88 31.508-3.232 32.88-.827 47.132 1.381 47.173 1.387l-.89 5.665c-.041-.006-13.897-2.154-46.146-1.342-30.757.773-38.316 4.546-61.303 16.02l-2.572 1.283h-.01c-10.068 5.018-31.838 17.256-55.794 31.271 2.151 3.992 5.93 11.787 4.977 15.713-.695 2.862-8.88 10.322-18.234 18.846-10.002 9.116-21.408 19.51-25.296 25.176-4.064 5.925-8.309 13.54-11.905 22.095-3.074 7.31-5.672 15.311-7.272 23.529-3.536 18.153-10.374 65.264-10.394 65.4l-5.776-.805c.02-.137 6.878-47.384 10.439-65.67 1.673-8.59 4.394-16.964 7.613-24.626 3.756-8.932 8.198-16.897 12.455-23.103 4.283-6.245 15.94-16.867 26.163-26.183 8.658-7.89 16.234-14.794 16.523-15.981.537-2.215-2.416-8.077-4.279-11.468-7.922 4.658-16.008 9.467-23.925 14.233-27.108 16.326-52.17 32.136-61.723 39.73l-3.676-4.433c6.924-5.503 21.608-15.105 39.265-26.069-4.843-6.805-9.484-13.067-14.022-17.864-4.75-5.02-9.306-8.373-13.737-8.895-3.76-.442-10.312 1.023-17.872 3.28 3.909 20.771 5.935 38.932 5.147 47.743l-5.822-.492c.745-8.33-1.186-25.587-4.914-45.505-5.293 1.716-10.843 3.666-16.12 5.52-5.267 1.852-10.275 3.612-14.285 4.89-1.867.594-3.916 1.156-6.083 1.683l15.506 31.128-2.626 1.253 1.552 2.419c-14.17 8.724-71.06 39.935-81.404 45.61l.002.004-1.26.692c-3.13 1.72-5.624 2.688-7.988 2.383-2.754-.354-4.694-2.128-6.176-5.908-1.962-5-93.643-144.645-93.906-145.046l4.908-3.09c.077.116 7.867 11.98 18.937 28.895 5.274-1.46 18.958-5.299 20.734-6.317 2.099-1.2 14.024-14.975 14.059-15.014l.454-.527.652-.267 64.989-26.687-3.213-6.453 5.25-2.507 46.91 94.172c2.482-.579 4.814-1.2 6.899-1.865 4.349-1.385 9.114-3.06 14.126-4.822 5.548-1.948 11.385-4 16.99-5.794-1.62-8.129-3.512-16.59-5.624-24.982-6.318-25.11-14.552-49.48-23.184-62.333-7.83-11.658-23.423-36.608-39.503-62.658-9.75 5.997-44.831 27.543-50.42 30.548-2.705 1.454-12.726 4.378-24.66 7.56-19.02 5.073-43.385 10.962-49.794 12.372-6.961 1.533-66.568 17.601-103.46 27.582l6.175 20.578 56.002-10.973 1.141 5.621-55.487 10.872 20.923 69.723c28.364-6.823 62.155-14.419 64.937-12.6 4.104 2.683 49.158 57.033 49.289 57.19l-4.521 3.604c-.128-.154-44.6-53.795-48.01-56.025-1.506-.983-32.944 6.486-60.088 13.189l15.75 52.485-5.593 1.612-15.813-52.696c-14.428 3.584-26.85 6.746-31.654 7.973 20.957 26.304 51.057 62.609 51.185 62.764l-4.52 3.605c-.191-.23-66.685-80.427-71.43-89.733-3.75-7.356-14.699-37.786-18.919-49.637l-79.36 15.55-1.142-5.621 84.152-16.487.165-.057.009.022 47.244-9.256-6.057-20.182c-13.912 3.765-23.438 6.35-23.536 6.377l-.777-2.754-2.784.84-40.284-128.335 5.572-1.68 39.449 125.68c3.771-1.023 11.204-3.037 20.715-5.612L35.357 67.312c-2.164-2.031-4.024-4.037-5.44-5.934-3.088-4.136-5.774-8.298-8.229-12.102-4.177-6.475-7.647-11.85-10.933-13.74-5.45-3.133-62.03-7.171-62.193-7.182l.411-5.71c.167.012 58.07 4.14 64.728 7.967 4.513 2.595 8.326 8.503 12.919 15.62 2.387 3.698 4.999 7.746 8 11.766 4.058 5.435 12.409 12.021 20.878 17.203 8.284 5.066 16.448 8.715 20.414 8.45 3.525-.235 15.627-2.953 29.414-6.298 17.746-4.306 38.105-9.613 46.834-12.072l-20.56-41.9-3.286-5.852-63.007-111.71 5.115-2.756 27.765 49.23c7.52-1.756 32.602-7.36 41.881-6.268 8.888 1.047 67.024 52.493 92.216 75.117 8.823-4.722 19.99-10.705 31.167-16.71.781-17.064 1.95-33.24 1.955-33.32l5.822.381c-.005.074-1.017 14.098-1.786 29.72 18.868-10.145 36.556-19.71 41.606-22.614 11.365-6.534 20.98-24.998 21.008-25.05l2.591 1.309 2.421-1.601 39.199 57.051-4.84 3.202-36.554-53.2c-3.778 6.253-11.694 17.935-20.88 23.215-5.378 3.092-24.82 13.597-44.859 24.366-.454 10.643-.718 21.222-.411 27.98.73 16.102 3.048 26.537 3.562 28.685 1.964 3.237 16.996 28.004 34.568 56.667 4.565-2.783 14.82-9.064 26.21-16.242l-36.835-52.32 4.795-3.246 36.94 52.467c17.843-11.33 36.84-23.902 40.506-28.295 6.072-7.28-25.832-49.923-25.924-50.045l4.705-3.36c.098.134 34.697 46.295 25.74 57.033-6.932 8.307-60.935 41.464-73.136 48.902 20.19 32.899 42.878 69.52 52.773 84.253 9.039 13.458 17.533 38.469 23.983 64.101 2.077 8.254 3.944 16.586 5.553 24.629 8.044-2.359 15.174-3.873 19.648-3.346 6.005.707 11.679 4.722 17.322 10.687 4.81 5.084 9.648 11.625 14.687 18.708 5.844-3.601 11.951-7.317 18.162-11.057 7.933-4.777 16.04-9.597 23.986-14.268-4.306-6.48-16.923-23.91-29.637-26.526-7.565-1.557-15.343-6.563-22.171-12.561-9.482-8.33-17.272-18.709-19.954-24.218-3.701-7.606-15.476-9.12-15.51-9.125l.777-5.664c.043.005 14.942 1.916 20.007 12.325 2.454 5.042 9.685 14.629 18.562 22.428 6.154 5.406 13.03 9.89 19.475 11.217 14.915 3.069 28.892 22.339 33.45 29.191 24.06-14.074 45.956-26.38 56.12-31.447l-.002-.004 2.572-1.283c5.747-2.869 10.565-5.273 15.016-7.282-2.188-4.247-7.447-12.464-15.424-12.592-6.75-.109-12.629-1.307-18.049-3.488-5.378-2.164-10.27-5.287-15.09-9.262-4.218-3.478-10.327-4.734-15.617-5.821-5.813-1.196-10.8-2.221-13.158-5.894-1.751-2.728-6.16-11.883-10.937-21.805-5.433-11.282-11.349-23.569-14.086-27.984-2.86-4.611-9.53-14.11-16.006-22.807-5.385-7.231-10.627-13.901-13.392-16.703-1.429-1.449-2.559-2.916-3.38-4.38-1.394-2.484-1.934-4.987-1.582-7.432.353-2.46 1.588-4.753 3.74-6.793 1.216-1.156 2.72-2.227 4.516-3.196 2.52-1.359 9.864-4.375 19.53-8.197l-2.824-6.976c-5.685-14.045-14.9-36.808-16.573-39.64-1.769-2.998-1.777-5.549-.142-7.976 1.294-1.922 3.672-3.51 7.08-5.062 5.044-2.297 37.562-12.93 48.155-16.375-5.116-9.688-8.788-21.665-7.989-36.754l5.822.29c-1.41 26.636 12.525 43.084 21.959 54.22 1.442 1.701 2.79 3.292 3.727 4.463 3.737 4.663 9.9 13.832 16.483 23.908l.18-.08c12.78-5.626 18.756-14.851 24.122-23.135 2.912-4.496 5.658-8.737 9.248-12.218l4.11 4.075c-3.134 3.039-5.702 7.005-8.427 11.211-5.721 8.833-12.085 18.656-26.068 25.011 2.486 3.831 4.985 7.709 7.393 11.445 6.12 9.496 11.652 18.079 14.812 22.573 1.202 1.709 2.495 4.291 3.831 7.472 5.679-14.893 18.855-48.292 25.173-54.642 3.594-3.612 10.724-9.32 18.392-15.042-.819-1.695-1.678-3.523-2.576-5.493-1.19-2.607-2.425-5.418-3.699-8.446-8.574-20.373-13.007-37.166-16.115-48.937-.814-3.084-1.533-5.805-2.312-8.477l5.617-1.568z" mask="url(#6j2ioeb25e)"/>
                                    </g>
                                    <g transform="translate(-26 -434.426) translate(19.268 18.166)">
                                        <mask id="kt5hp7tbwg" fill="#fff">
                                            <use xlink:href="#jlo2yw9nrf"/>
                                        </mask>
                                        <path fill="#FFF" d="M371.756 469.06c-6.03-.374-11.63-.183-16.748.347-10.75 1.11-19.412 3.712-25.474 5.694-5.214 1.704-17.746 3.029-32.286 4.565-18.075 1.911-39.36 4.161-51.895 7.54 24.55 13.94 57.632 44.45 66.77 53.063 22.536-14.93 40.877-30.148 48.095-42.324 4.455-7.515 8.28-17.643 11.538-28.885zM188.36 567.378c1.955 6.836 3.709 14.271 5.258 22.085.507 2.556.992 5.157 1.456 7.791 23.532-5.915 62.105-23.688 96.55-44.145 4.552-2.703 9.027-5.452 13.381-8.22-11.418-10.695-46.703-42.846-69.317-53.514-13.942 11.203-42.486 66.504-47.328 76.003zm-52.464-126.37c2.505 40.422 20.09 66.695 33.777 87.144 2.478 3.703 4.83 7.216 7.113 10.863 2.914 4.651 5.582 10.492 8.005 17.222 9.005-17.153 29.26-54.31 42.868-68.48-9.222-4.373-18.741-9.822-29.013-15.702-18.098-10.36-38.561-22.075-62.75-31.048zm51.022 157.962c-.473-2.696-.969-5.356-1.488-7.972-.931-4.703-1.935-9.256-3.01-13.6l-14.599 24.007c6.582-.567 13.024-1.359 19.097-2.435zM397.25 357.924c-1.35-1.324-3.215-2.143-5.276-2.143-2.062 0-3.928.819-5.277 2.143-1.351 1.324-2.186 3.154-2.186 5.176 0 2.02.835 3.851 2.186 5.175 1.349 1.324 3.215 2.143 5.277 2.143 2.06 0 3.927-.82 5.276-2.143 1.35-1.324 2.186-3.154 2.186-5.175 0-2.022-.835-3.852-2.186-5.176zm-88.797-30.752c-9.717 9.172-22.896 16.189-36.024 23.177-4.953 2.638-9.9 5.271-14.853 8.149-10.597 6.159-35.303 23.279-59.473 40.027-22.175 15.367-43.902 30.423-54.371 36.712 22.76 8.934 41.987 19.94 59.122 29.749 11.67 6.682 22.362 12.801 32.219 17.172 11.707-5.374 38.883-8.247 61.294-10.617 14.1-1.49 26.253-2.775 30.557-4.181 6.462-2.113 15.703-4.887 27.236-6.078 6.006-.622 12.625-.812 19.784-.259 8.349-32.553 12.407-71.038 13.533-83.052-2.558-.744-4.847-2.104-6.685-3.906-2.86-2.807-4.631-6.684-4.631-10.965 0-.78.059-1.547.172-2.296-8.733-3.614-32.195-13.883-67.88-33.632zM135.56 430.405c5.853-2.604 31.481-20.363 57.748-38.565 24.3-16.839 49.14-34.052 60.028-40.379 4.723-2.745 9.915-5.508 15.114-8.276 11.795-6.28 23.634-12.583 32.444-20.284-21.717-12.676-39.758-27.22-53.087-42.143-13.488-15.102-22.207-30.666-25.12-45.195-12.833 2.791-51.822 13.325-63.576 40.223-7.195 16.464-13.242 42.276-17.415 70.49-4.146 28.031-6.424 58.314-6.136 84.13zm319.594-249.828c12.936-.056 26.829-.258 40.063-.81 17.453-.727 33.629-2.056 44.624-4.45 17.136-3.736 36.55.652 60.41 6.043 9.12 2.061 18.906 4.273 29.347 6.207 5.507 1.02 11.823 2.536 18.73 4.408-4.359-25.116-9.426-45.772-13.259-53.973-2.42-5.177-7.163-12.652-13.222-21.367-17.062 1.17-28.744 2.072-30.652 2.463-3.573.734-20.797 6.802-40.006 13.8-26.61 9.696-56.807 21.101-60.156 22.714-2.153 1.038-9.59 6.142-18.907 12.758-5.288 3.753-11.142 7.972-16.972 12.207zm-224.267 53.485c2.63 13.086 10.677 27.322 23.183 41.323 13.113 14.681 31.065 29.023 52.789 41.488 1.974-2.355 3.658-4.843 4.983-7.495 6.338-12.693 22.677-22.73 38.19-32.261 10.566-6.492 20.726-12.735 26.292-18.995 7.202-8.102 13.22-17.532 16.654-27.231 2.485-7.02 3.61-14.17 2.828-21.024-26.523 5.423-63.622 10.286-98.83 14.899-24.296 3.184-47.673 6.248-66.09 9.296zM557.37 399.04c-1.35-1.324-3.217-2.143-5.277-2.143-2.061 0-3.927.819-5.278 2.143-1.35 1.323-2.185 3.154-2.185 5.175 0 2.022.835 3.852 2.185 5.176 1.35 1.324 3.217 2.143 5.278 2.143 2.06 0 3.927-.82 5.277-2.143 1.35-1.324 2.185-3.154 2.185-5.176 0-2.02-.835-3.852-2.185-5.175zm-5.277-10.332c4.15 0 7.928 1.568 10.75 4.135l1.046-.62c13.028-7.704 42.616-25.205 70.43-24.637 6.418.13 13.974 1.245 22.048 2.978l.008-7.547c.03-25.681.056-49.228.863-66.385 1.11-23.56-1.433-54.02-5.397-82.243-.645-4.583-1.324-9.103-2.032-13.522-8.14-2.285-15.506-4.115-21.744-5.27-10.689-1.98-20.515-4.201-29.673-6.27-22.872-5.168-41.48-9.374-56.756-6.046-11.55 2.517-28.216 3.9-46.093 4.644-17.167.714-35.58.843-51.588.827-5.125 3.757-9.903 7.28-13.87 10.22-4.36 3.231-13.643 6.259-26.113 9.129 1.122 8.384-.158 17.038-3.134 25.446-3.806 10.75-10.397 21.114-18.251 29.95-6.336 7.127-17.032 13.699-28.153 20.53-14.525 8.925-29.823 18.324-35.123 28.935-1.42 2.846-3.15 5.503-5.13 8.003 34.682 19.113 57.283 28.965 65.516 32.362.345-.415.71-.813 1.095-1.192 2.862-2.806 6.815-4.541 11.182-4.541 4.365 0 8.32 1.735 11.18 4.541 2.708 2.655 4.438 6.269 4.617 10.277 12.491.212 22.769-1.642 32.61-3.42 12.556-2.267 24.437-4.413 39.438-2.354 9.258 1.27 18.821 3.476 26.946 5.897 9.306 2.774 16.868 5.91 20.151 8.345 4.424 3.279 7.631 5.896 10.886 9.149 2.644 2.642 5.255 5.65 8.532 9.74 1.785-.685 3.727-1.06 5.76-1.06zm-5.887 29.904c-5.629 8.83-18.369 29.815-24.82 48.465 29.651 3.878 55.415 24.557 77.324 42.147 8.336 6.693 16.098 12.924 23.116 17.44 3.697 2.38 7.94 5.106 12.607 8.058 7.54-6.538 12.804-13.783 14.536-21.759 6.566-30.21 7.263-84.398 7.382-134.046-8.225-1.85-15.867-3.045-22.196-3.174-25.376-.519-53.554 16.148-65.961 23.487l-.943.557c.426 1.402.655 2.89.655 4.428 0 4.282-1.77 8.159-4.633 10.965-2.86 2.807-6.814 4.542-11.18 4.542-2.08 0-4.068-.394-5.887-1.11zm-33.37 47.78c6.657-20.345 20.952-43.72 26.72-52.725-2.054-2.617-3.276-5.895-3.276-9.452 0-3.612 1.26-6.936 3.372-9.572-3.017-3.76-5.412-6.515-7.786-8.888-2.886-2.884-5.837-5.285-9.972-8.35-2.58-1.913-9.161-4.567-17.544-7.065-7.705-2.296-16.811-4.393-25.672-5.61-13.701-1.879-24.931.148-36.796 2.292-10.726 1.936-21.949 3.961-36.03 3.516-.726 1.3-1.637 2.488-2.697 3.528-1.988 1.949-4.502 3.38-7.316 4.075-1.06 11.402-5.093 50.212-13.604 83.839 4.17.639 8.495 1.54 12.965 2.757 17.24 4.696 41.818 3.587 67.525 2.426 16.73-.755 33.928-1.531 50.11-.771zm-13.844 114.405c-1.35-1.324-3.217-2.143-5.277-2.143-2.062 0-3.927.819-5.278 2.143-1.35 1.323-2.186 3.154-2.186 5.175s.835 3.852 2.186 5.175c1.35 1.325 3.216 2.143 5.278 2.143 2.06 0 3.927-.818 5.277-2.143 1.35-1.323 2.185-3.154 2.185-5.175 0-2.02-.836-3.852-2.185-5.175zm-6.115-10.31c1.47-11.337 5.153-33.966 9.18-55.61 2.878-15.48 5.929-30.437 8.467-40.406-15.31-.601-31.589.134-47.44.85-26.373 1.19-51.59 2.328-70.102-2.715-4.452-1.212-8.748-2.087-12.875-2.682-3.529 12.447-7.727 23.76-12.682 32.117-7.733 13.046-26.63 28.933-49.732 44.358 6.058 7.19 21.41 23.827 37.419 28.61 20.006 5.98 101.053 6.711 123.349 6.861.735-2.633 2.16-4.987 4.072-6.863 2.678-2.626 6.311-4.314 10.344-4.52zm15.895 10.737c17.108-3.11 83.612-16.417 118.763-41.136-3.76-2.388-7.206-4.602-10.275-6.578-7.424-4.778-15.337-11.13-23.834-17.952-21.394-17.177-46.62-37.426-74.439-40.54-2.587 9.793-5.763 25.275-8.743 41.3-4.086 21.96-7.818 44.978-9.195 55.912 1.423.733 2.72 1.672 3.846 2.777 1.756 1.72 3.1 3.844 3.877 6.217zm-589.26-393.656c18.929 3.507 47.414 12.867 76.631 22.47 29.347 9.644 59.442 19.535 80.834 23.813 40.458 8.088 114.868 1.06 121.698.39 9.614-3.672 18.122-5.776 22.84-6.79-2.451-19.06-8.12-55.992-14.439-88.819-4.218-21.917-8.715-41.979-12.708-53.574-2.268.07-4.223.262-5.784.674-10.98 2.9-86.677 19.093-86.896 19.138l-.274.06-.361.02c-.606.036-211.269 12.368-219.944 14.15l-1.696-7.998c9.078-1.864 211.52-13.744 220.788-14.287 4.92-1.053 75.858-16.245 86.23-18.983 1.572-.416 3.31-.667 5.203-.81-4.507-16.214-2.621-34.898-.472-56.164 1.584-15.685 3.315-32.817 2.647-51.149l8.317-.288c.688 18.894-1.07 36.3-2.68 52.237-2.16 21.395-4.046 40.06.836 55.255 1.218.028 2.476.066 3.774.104 11.244.336 25.68.767 40.516-4.412 24.354-8.5 229.06-118.354 229.65-118.67l3.98 7.165c-.591.317-205.947 110.52-230.858 119.214-16.254 5.673-31.579 5.216-43.517 4.86l-.675-.02c3.903 12.28 8.143 31.358 12.112 51.975 6.316 32.812 11.972 69.565 14.467 88.828 18.124-2.987 41.687-6.075 66.17-9.282 56.137-7.357 117.188-15.357 129.16-24.228 11.113-8.234 28.543-21.022 42.172-30.698 9.591-6.809 17.425-12.15 20.147-13.46 3.545-1.708 34.119-13.275 60.907-23.035 19.566-7.128 37.234-13.335 41.212-14.152 1.87-.384 11.945-1.192 26.837-2.24-10.865-15.073-24.408-32.587-36.394-48.086-6.168-7.976-11.94-15.438-16.244-21.121-22.478-29.675-25.023-92.152-25.03-92.332l8.318-.352c.006.173 2.456 60.174 23.398 87.821 5.058 6.677 10.435 13.63 16.18 21.058 13.083 16.919 28 36.208 39.434 52.347 62.847-4.271 184.19-11.376 184.65-11.403l.49 8.157c-.448.026-116.26 6.805-179.729 11.04 5.051 7.45 9.014 13.886 11.226 18.622 4.275 9.148 9.916 32.312 14.553 59.862 14.893 4.34 31.84 9.91 49.041 15.563 29.347 9.644 59.443 19.535 80.834 23.813l-1.663 7.997c-21.9-4.379-52.233-14.348-81.813-24.07-15.68-5.153-31.146-10.235-44.953-14.352.504 3.252.992 6.55 1.46 9.876 4.02 28.628 6.596 59.598 5.462 83.683-.807 17.165-.834 40.539-.863 66.032l-.012 9.499c9.079 2.296 18.525 5.183 27.543 8.2 19.95 6.678 37.83 13.98 44.856 16.858 13.353 5.473 35.68 14.95 35.745 14.977l-3.294 7.485c-.06-.025-21.029-8.92-35.647-14.913-6.96-2.853-24.674-10.086-44.334-16.665-8.178-2.736-16.69-5.363-24.887-7.51-.134 49.535-.913 103.22-7.538 133.711-1.958 9.009-7.651 17.136-15.748 24.422 10.775 6.709 23.237 14.198 36.238 21.32 21.963 12.034 45.625 23.146 65.653 27.955 40.66 9.764 50.063 11.734 50.09 11.74l-1.728 7.996c-.027-.006-9.15-1.917-50.32-11.804-20.886-5.015-45.24-16.425-67.74-28.753-14.21-7.786-27.62-15.89-38.939-22.971-37.75 27.974-109.778 42.083-125.507 44.904-.36 1.526-.948 2.967-1.73 4.284 31.632 20.52 39.42 48.576 39.445 48.66l.124.435.023.493c.006.174 2.456 60.176 23.398 87.822l-6.686 4.862c-21.318-28.143-24.707-85.782-25.006-91.81-1.05-3.361-9.292-27.093-37.41-44.624-2.248 1.205-4.826 1.89-7.567 1.89l-.12-.002-13.339 53.368-.438 1.755-1.616.868c-.591.317-205.947 110.52-230.858 119.214l-2.772-7.709C267.7 760.901 453.45 661.44 472.606 651.17l12.972-51.898c-1.111-.656-2.133-1.44-3.045-2.335-1.924-1.887-3.355-4.257-4.086-6.91-22.491-.15-104.62-.897-125.75-7.213-18.586-5.555-35.782-24.447-41.972-31.856-4.809 3.083-9.759 6.134-14.795 9.125-35.378 21.011-75.232 39.288-99.515 45.262 3.083 19.773 5.003 40.974 5.711 60.446.688 18.894-1.07 36.3-2.68 52.236-2.286 22.63-4.263 42.204 1.748 57.85l-7.796 2.878c-6.692-17.418-4.626-37.877-2.236-61.528 1.584-15.685 3.315-32.817 2.647-51.148-.691-18.998-2.56-39.694-5.561-59.045-44.042 7.75-106.078 1.141-106.263 1.122l-.268-.028-.173-.036c-.028-.006-9.15-1.917-50.32-11.804-20.886-5.015-45.24-16.425-67.74-28.753-22.474-12.313-42.947-25.424-56.31-34.025l4.566-6.845c13.356 8.596 33.8 21.69 55.79 33.737 21.962 12.033 45.624 23.145 65.652 27.954 37.694 9.052 48.522 11.404 49.924 11.704 3.424.351 39.386 3.917 74.598 2.046l21.706-35.696c-2.855-9.389-6.104-17.342-9.734-23.14-2.006-3.203-4.43-6.824-6.983-10.64-14.499-21.66-33.207-49.616-35.237-93.68-4.94-.387-10.778-1.447-16.98-2.909-18.637-4.393-41.118-12.301-50.852-15.925-9.709-3.615-15.713-6.27-22.113-9.102-4.075-1.803-8.315-3.678-13.713-5.89-6.96-2.854-24.674-10.087-44.335-16.666-19.498-6.525-40.893-12.419-55.394-12.715-25.376-.519-53.554 16.148-65.962 23.487-1.548.915-2.842 1.681-4.205 2.44l-4.11-7.1c.773-.432 2.245-1.302 4.01-2.346 13.029-7.705 42.616-25.206 70.43-24.638 15.56.318 37.794 6.4 57.906 13.13 19.95 6.678 37.83 13.98 44.855 16.858 5.555 2.276 9.831 4.168 13.943 5.988 6.326 2.799 12.262 5.424 21.624 8.91 9.612 3.578 31.753 11.372 49.84 15.636 5.594 1.318 10.731 2.311 14.845 2.74-.32-26.354 1.984-57.23 6.199-85.722 4.268-28.863 10.514-55.404 18.002-72.538 5.422-12.407 15.7-21.68 26.906-28.517-27.108 1.824-73.557 3.671-103.04-2.223-21.898-4.379-52.23-14.348-81.81-24.07-28.927-9.505-57.129-18.774-75.523-22.181l1.533-8.029z" mask="url(#kt5hp7tbwg)"/>
                                    </g>
                                    <path fill="#FFF" d="M190.733 605.77c-.056-.028-19.97-9.959-26.586-16.237-6.268-5.949-17.923-19.827-18.826-20.904L105.43 531.74l-.01-.01c-.05-.048-17.793-16.828-19.423-18.958-.099-.13-.187-.262-.263-.395-.8-1.397-1.515-4.766-1.346-8.22.174-3.537 1.256-7.258 4.069-9.327.28-.206.564-.389.85-.547 3.164-1.742 6.329-2.721 9.463-2.61 3.18.113 6.269 1.337 9.217 4.007 5.466 4.947 18.408 15.609 18.446 15.639l.077.067 39.952 38.77-1.762 1.738-39.932-38.752c-.945-.779-13.284-10.96-18.474-15.658-2.478-2.245-5.027-3.272-7.613-3.364-2.633-.093-5.366.77-8.151 2.303-.216.118-.408.24-.576.365-2.105 1.548-2.927 4.566-3.07 7.485-.148 3.002.405 5.809 1.032 6.903.037.065.064.109.078.128 1.486 1.943 18.738 18.262 19.148 18.651l39.941 36.935.051.046.057.068c.035.043 12.268 14.67 18.697 20.772 6.326 6.004 25.924 15.778 25.98 15.806l-1.135 2.188zM84.26 552.086c.057-.072-2.517-3.398-5.507-7.685-4.446-6.377-10.234-14.037-11.89-15.778-1.468-1.543-3.724-12.065-5.8-23.435-2.068-11.328-3.97-23.319-4.722-28.154-.217-1.394-.334-2.172-.334-2.175l2.455-.48.355 2.29c.765 4.918 2.69 17.057 4.702 28.087 2.007 10.99 4.092 21.06 5.174 22.197 1.72 1.807 7.621 9.609 12.124 16.067 3.557 5.1 6.18 9.612 5.42 10.573l-1.977-1.507z" transform="translate(-26 -434.426)"/>
                                    <path fill="#FFF" d="M83.275 469.591L89.96 495.886 87.533 496.472 80.849 470.177zM111.957 501.715c.005-.046 1.883-16.03 3.753-19.806 1.807-3.65 12.255-21.55 12.285-21.602l2.173 1.219c-.03.05-10.467 17.932-12.209 21.448-1.679 3.39-3.512 18.974-3.516 19.02l-2.486-.28zM29.117 287.302c.039.108 13.305 37.336 22.069 67.213 8.813 30.049 8.197 70.678 8.195 70.795l-.728 50.44-2.495-.03.728-50.439c.002-.116.612-40.366-8.108-70.094-8.77-29.9-21.98-66.972-22.019-67.08l2.358-.805z" transform="translate(-26 -434.426)"/>
                                    <g transform="translate(-26 -434.426) translate(19.268 411.229)">
                                        <mask id="xy27t0kjdi" fill="#fff">
                                            <use xlink:href="#1deb7waqah"/>
                                        </mask>
                                        <path fill="#FFF" d="M124.801 1.898L98.489 36.053 98.182 36.452 97.677 36.528 -32.978 56.101 -33.35 53.674 96.8 34.176 122.804 0.42z" mask="url(#xy27t0kjdi)"/>
                                    </g>
                                    <path fill="#FFF" d="M210.563 416.4L224.733 435.875 222.698 437.296 208.528 417.82z" transform="translate(-26 -434.426)"/>
                                </g>
                            </g>
                        </g>
                        <g mask="url(#gv2jn39zib)">
                            <g>
                                <g transform="translate(54 13.729)">
                                    <ellipse cx="16.5" cy="16.181" fill="#475DCC" rx="16.5" ry="16.181"/>
                                    <ellipse cx="16.5" cy="16.181" fill="#FFF" rx="14.732" ry="14.447"/>
                                    <g fill="#475DCC">
                                        <path d="M13.658 16.267h-.763c-.188 0-.347-.153-.347-.336v-.584h1.458v.584c0 .183-.16.336-.348.336zm-7.35-.336c0 .183-.158.336-.346.336h-.764c-.189 0-.348-.153-.348-.336v-.584h1.458v.584zM8.981 2.24c3.426 0 6.035 1.233 6.035 1.85v.376H3.841V4.09c0-.754 2.002-1.85 5.14-1.85zM3.84 8.385h11.175V5.78H3.841v2.604zm11.175 4.967c0 .37-.37.68-.807.68H4.647c-.437 0-.806-.31-.806-.68V9.7h11.175v3.652zM8.981.925C5.286.925 2.5 2.285 2.5 4.09V13.353c0 .71.405 1.33 1.01 1.684v.894c0 .91.757 1.651 1.688 1.651h.764c.93 0 1.687-.74 1.687-1.65v-.585h3.558v.584c0 .91.757 1.651 1.688 1.651h.763c.93 0 1.689-.74 1.689-1.65v-.895c.604-.353 1.01-.974 1.01-1.685V4.09c0-2.16-4.402-3.165-7.376-3.165zm3.94 10.257c.255 0 .463.202.463.452s-.208.452-.463.452c-.254 0-.463-.203-.463-.452 0-.25.209-.452.463-.452m0 2c.871 0 1.58-.695 1.58-1.548 0-.854-.709-1.548-1.58-1.548-.871 0-1.58.694-1.58 1.548 0 .853.709 1.548 1.58 1.548m-6.986-2c.255 0 .462.202.462.452s-.207.452-.462.452-.462-.203-.462-.452c0-.25.207-.452.462-.452m0-1.096c.87 0 1.58.694 1.58 1.548 0 .853-.71 1.548-1.58 1.548-.87 0-1.58-.695-1.58-1.548 0-.854.71-1.548 1.58-1.548zm4.972-7.08c.307 0 .558.245.558.548 0 .302-.25.548-.558.548H7.95c-.308 0-.559-.246-.559-.548 0-.303.25-.548.56-.548z" transform="translate(7.071 6.935)"/>
                                    </g>
                                </g>
                                <g transform="translate(54 13.729) translate(86 8.826)">
                                    <ellipse cx="16.5" cy="16.181" fill="#C4842C" rx="16.5" ry="16.181"/>
                                    <ellipse cx="16.5" cy="16.181" fill="#FFF" rx="14.732" ry="14.447"/>
                                    <g fill="#C4842C">
                                        <path d="M14.492.925c.753 0 1.476.293 2.007.815l.59.577c1.1 1.084 1.1 2.832 0 3.916L6.335 16.759c-.533.52-1.255.81-2.007.809-.739-.009-1.445-.299-1.968-.809l-.59-.577c-1.101-1.087-1.101-2.838 0-3.926L12.483 1.74c.532-.522 1.255-.815 2.008-.815zm0 1.44c-.369-.003-.723.14-.984.395l-1.073 1.049v2.934c-.005.395-.334.712-.738.712-.407 0-.738-.323-.738-.722V5.255L9.178 7v2.85c.003.193-.074.378-.213.514-.14.136-.328.211-.525.208-.408 0-.738-.323-.738-.721V8.446l-1.639 1.607c.004.029.006.057.006.086v2.56c0 .398-.33.722-.738.722s-.739-.324-.739-.722v-1.206l-1.82 1.783c-.26.256-.401.603-.394.962-.012.36.131.71.394.963l.59.587c.55.518 1.42.518 1.969 0L16.047 5.213c.263-.253.405-.602.393-.962.008-.36-.134-.707-.393-.962l-.59-.578c-.265-.232-.61-.356-.965-.346z" transform="translate(7.071 6.935)"/>
                                    </g>
                                </g>
                            </g>
                        </g>
                    </g>
                </g>
            </g>
        </g>
    </g>
</svg>
