<svg width="226" height="70" viewBox="0 0 226 70" fill="none" xmlns="http://www.w3.org/2000/svg">
<g clip-path="url(#clip0_860_17654)">
<path fill-rule="evenodd" clip-rule="evenodd" d="M0 70H226V0H0V70Z" fill="#EFEFED"/>
<path fill-rule="evenodd" clip-rule="evenodd" d="M-24.5465 25.0269L112.865 -56.3379L122.05 -50.3882L108.168 37.5008L85.9877 39.2226L51.7524 47.1555L-6.33578 53.5795L-12.2301 37.6569L-24.5465 25.0269Z" fill="#C1EBB3"/>
<path fill-rule="evenodd" clip-rule="evenodd" d="M236.436 -196.451C246.038 -193.528 249.902 -181.385 262.738 -181.002C288.691 -180.228 278.568 -169.617 305.042 -154.188C312.847 -149.64 318.61 -134.213 319.206 -127.873C323.121 -86.1699 264.304 -67.9585 238.001 -60.0256C211.698 -52.0927 197.086 -18.2735 207.107 6.36026C217.127 30.994 200.217 49.1561 189.988 60.2205C179.759 71.2848 185.604 94.0396 188.945 106.774C192.285 119.508 193.328 145.812 177.463 173.369C161.598 200.925 164.938 204.265 166.608 216.791C168.278 229.317 159.928 235.162 152.204 249.149C144.48 263.136 155.857 294.346 156.692 331.088H132.607C132.607 331.088 120.5 269.788 126.971 257.263C133.442 244.737 143.044 236.804 143.879 220.312C144.714 203.82 146.698 189.729 152.961 179.291C159.222 168.853 170.704 135.242 169.451 119.585C168.2 103.928 152.387 75.3806 161.99 56.1747C171.591 36.9688 183.073 27.157 179.106 8.36853C175.14 -10.4199 179.941 -55.7209 202.487 -76.597C225.032 -97.473 247.577 -107.076 241.941 -128.787C236.305 -150.498 221.431 -159.527 214.125 -160.675C162.686 -168.759 156.514 -209.776 131.145 -240.527C117.368 -257.227 106.93 -249.294 87.3073 -252.217C67.6846 -255.14 64.7621 -290.629 91.8999 -311.088C119.038 -331.547 117.576 -318.394 128.431 -338.018C139.752 -358.481 132.172 -379.214 128.912 -400.401C125.996 -419.361 123.019 -445.201 126.971 -452.851C133.442 -465.377 143.044 -473.309 143.879 -489.801C143.913 -490.453 143.947 -491.1 143.984 -491.745H166.767C167.561 -480.28 159.596 -474.351 152.204 -460.965C147.059 -451.646 150.391 -434.686 153.435 -413.539C160.614 -363.66 172.098 -334.039 132.868 -296.631C123.892 -288.072 131.72 -272.519 147.585 -260.62C163.45 -248.721 167.208 -238.909 175.766 -222.417C187.055 -200.664 216.07 -202.649 236.436 -196.451Z" fill="#8FD5E8"/>
<path fill-rule="evenodd" clip-rule="evenodd" d="M86.1317 -3.71544C75.0678 2.44299 67.2396 9.854 52.9401 13.5073C38.6406 17.1606 6.91028 27.1811 0.230218 32.087C-6.44985 36.9929 -7.49362 40.0199 -2.27482 40.2286C2.94398 40.4374 9.10219 36.471 15.7823 33.6527C22.4623 30.8344 37.8056 23.9453 48.0344 23.7366C58.2633 23.5278 63.4821 26.4504 66.1959 24.3628C68.9096 22.2752 72.5628 23.7366 79.1385 23.0059C85.7142 22.2752 93.8555 14.8643 94.3774 7.03575C94.8993 -0.792768 90.5155 -7.47313 86.1317 -3.71544Z" fill="#8FD5E8"/>
<path fill-rule="evenodd" clip-rule="evenodd" d="M487.789 -165.383L400.298 -147.902L392.72 -145.702L391.1 -151.296L398.906 -153.563L399.146 -153.632L486.648 -171.113L487.789 -165.383ZM240.633 325.878C239.365 324.266 238.231 322.901 237.019 321.442C226.994 309.375 212.185 291.551 213.713 262.133C215.21 233.31 206.697 234.225 206.674 234.227L206.286 228.405C206.329 228.402 221.378 226.955 219.535 262.43C218.124 289.592 232.06 306.364 241.494 317.72C242.936 319.454 244.284 321.077 245.221 322.271L240.633 325.878ZM256.286 -361.115C250.002 -370.911 244.172 -379.729 240.633 -384.236C239.365 -385.848 238.231 -387.213 237.019 -388.672C233.195 -393.275 228.676 -398.716 224.632 -405.318C215.464 -402.281 180.899 -390.785 175.991 -388.505C173.554 -387.374 171.965 -386.383 171.33 -385.422C171.033 -384.973 171.129 -384.34 171.655 -383.43C173.51 -380.227 182.838 -356.729 188.593 -342.231C189.635 -339.608 190.542 -337.323 191.415 -335.143C197.865 -337.721 205.034 -340.555 212.329 -343.438C228.626 -349.881 245.555 -356.574 256.286 -361.115ZM-78.1866 -389.018L-55.2648 -404.194L-55.0486 -404.321C-54.9909 -404.351 -50.2347 -406.941 -42.8499 -410.97C-68.3678 -434.362 -123.096 -483.846 -130.35 -484.717C-138.21 -485.659 -159.898 -480.869 -168.614 -478.827L-136.302 -420.409L-133.139 -414.661L-133.123 -414.669L-111.988 -370.749C-101.84 -374.945 -79.8867 -388.005 -78.1866 -389.018ZM-177.714 -174.29L-224.675 -164.907C-220.313 -152.424 -209.849 -122.816 -206.313 -115.743C-205.033 -113.182 -198.623 -104.598 -190.149 -93.6758L-190.337 -94.4023C-190.226 -94.4307 -175.273 -98.3462 -156.717 -102.941L-177.714 -174.29ZM-168.602 231.284L-153.216 259.102L-135.418 225.373C-145.195 226.002 -161.36 229.588 -168.602 231.284ZM-224.195 190.126L-204.824 175.73L-206.574 113.007L-235.234 116.264L-224.195 190.126ZM-165.669 141.319L-200.717 114.087L-199.133 170.864L-165.669 141.319ZM-112.758 182.428L-160.989 144.954L-198.187 177.796L-171.533 225.985C-164.629 224.342 -142.998 219.411 -132.297 219.457L-112.758 182.428ZM75.5893 -109.308C58.6829 -105.827 38.312 -104.134 38.2386 -104.129L37.7584 -109.951C37.8286 -109.957 56.8016 -111.533 72.9457 -114.721L32.4436 -197.635L-32.2261 -170.556C-34.5232 -167.872 -44.7479 -156.013 -47.3297 -154.506C-49.3905 -153.304 -61.4456 -149.78 -67.724 -147.988C-40.2865 -105.214 2.97449 -37.5201 4.48502 -33.5938C5.09039 -32.0197 5.55219 -31.3233 5.98053 -31.2673C6.79968 -31.1605 8.27264 -31.8443 10.361 -33.0134L11.621 -33.7182H11.6327C21.4499 -39.2111 73.5185 -68.3398 90.5418 -78.6985L75.5893 -109.308ZM314.868 244.92C323.416 240.326 338.071 230.335 352.989 219.537C375.658 203.131 398.725 185.034 401.911 181.164C406.937 175.062 414.96 150.628 416.279 146.545C415.967 143.194 414.211 125.741 411.175 122.216C407.396 117.826 379.582 97.3257 379.501 97.2673L379.211 97.0518L378.988 96.7871L324.108 31.4644C320.726 38.3727 313.295 53.1896 304.175 69.1639C301.487 73.8752 296.812 80.5464 291.123 88.1269C295.282 94.1876 298.81 100.584 302.165 108.57C305.79 117.198 309.239 127.766 313.111 141.908C317.854 159.237 316.507 190.746 315.445 215.551C314.906 228.14 314.443 238.958 314.868 244.92ZM291.825 -16.0328L324.32 22.6454L389.242 -3.36523L391.411 2.04584L332.037 25.8353C347.818 30.8748 382.858 41.9332 388.868 42.7065C396.339 43.6668 403.802 41.5182 403.823 41.5115L404.074 41.4548L468.859 28.8548L469.955 34.5857L405.325 47.1556C404.364 47.4203 396.312 49.5346 388.137 48.4825C381.91 47.6817 348.84 37.3013 332.174 31.9946L383.241 92.7789C386.03 94.839 408.237 111.291 414.482 117.249L507.946 106.631L508.584 112.431L417.829 122.741C420.835 131.202 422.148 146.547 422.153 146.601L422.201 147.163L422.015 147.742C421.988 147.827 412.619 177.324 406.41 184.863C402.952 189.062 379.379 207.643 356.414 224.265C342.913 234.036 329.552 243.188 320.491 248.441C328.227 250.496 335.43 252.195 340.613 252.983C349.404 254.321 363.893 253.757 377.628 252.299C392.843 250.684 406.931 248.036 411.084 245.717L506.48 174.825L509.951 179.505L414.396 250.515L414.251 250.622L414.121 250.699C409.456 253.418 394.303 256.394 378.245 258.099C364.068 259.604 349.024 260.173 339.745 258.759C333.874 257.867 325.525 255.849 316.729 253.468C317.042 254.663 317.373 255.942 317.719 257.282C320.785 269.126 325.16 286.023 333.583 306.433L328.195 308.646C319.621 287.871 315.187 270.746 312.08 258.743C311.421 256.197 310.824 253.893 310.207 251.662C291.845 246.473 273.692 240.524 273.607 240.497L273.339 240.409L273.106 240.28L211.802 206.435L214.609 201.32L275.68 235.036C277.842 235.741 293.08 240.688 309.074 245.278C308.625 238.662 309.087 227.838 309.623 215.323C310.668 190.902 311.996 159.88 307.494 143.438C303.722 129.659 300.346 119.323 296.776 110.83C293.873 103.919 290.856 98.2852 287.398 93.0336C266.27 120.575 235.315 156.46 235.194 156.599L230.788 152.787C230.948 152.6 286.78 87.8798 299.108 66.2881C309.375 48.303 317.493 31.7708 320.001 26.5751L287.35 -12.2885L291.825 -16.0328ZM223.261 43.7261C223.923 36.0671 228.15 14.2474 238.124 -7.85944C244.312 -21.575 252.729 -35.4542 263.916 -46.2622L267.958 -42.0611C257.385 -31.846 249.371 -18.5997 243.443 -5.46204C233.794 15.9259 229.718 36.8904 229.084 44.228L223.261 43.7261ZM-63.1156 44.0526L-32.662 26.1484C-57.7891 22.4325 -136.514 28.2027 -136.764 28.2202L-137.176 22.3975C-136.901 22.3782 -44.3045 15.5811 -25.4241 21.8923L112.713 -59.3222L115.658 -54.2986L-19.4872 25.1573C-10.2328 31.7141 -7.29111 41.0347 -4.92218 48.5401C-4.44205 50.0624 -3.98611 51.5095 -3.59534 52.5859L-9.0755 54.5724C-9.61575 53.0794 -10.0433 51.725 -10.4933 50.2987C-12.7721 43.0773 -15.6537 33.9485 -25.126 28.4724L-60.1697 49.0762L-63.1156 44.0526ZM2.58121 233.263L1.48987 245.567L1.4957 245.568C1.49069 245.643 0.478668 259.943 -0.290375 275.874C14.9886 267.497 29.4927 259.508 37.1389 255.2L2.58121 233.263ZM-6.28073 279.158C-6.12125 275.618 -5.94672 272.114 -5.76886 268.781L-108.098 186.094L-126.461 220.894C-111.318 229.203 -60.5437 275.047 -37.4482 296.197C-28.6264 291.382 -17.4582 285.28 -6.28073 279.158ZM-6.83099 311.468C-7.11154 305.156 -6.93036 295.729 -6.56213 285.952C-15.9752 291.106 -25.2254 296.16 -32.915 300.358C-28.5187 304.401 -25.8809 306.853 -25.8366 306.894L-29.8096 311.163C-29.858 311.117 -33.0711 308.131 -38.3175 303.306C-46.691 307.875 -52.2012 310.874 -52.263 310.909L-55.0486 305.794C-54.9909 305.762 -50.2347 303.173 -42.8499 299.144C-67.2104 276.814 -118.165 230.729 -129.061 225.821L-149.842 265.203L-133.19 295.307L-138.306 298.116L-202.81 181.493L-295.691 250.515L-299.162 245.835L-229.508 194.074L-241.038 116.922L-296.376 123.209L-297.016 117.409L-241.902 111.148L-252.97 37.0825L-304.916 47.1857L-306.011 41.4548L-138.679 8.90985L-137.582 14.6407L-247.234 35.9669L-236.098 110.489L-206.738 107.154L-206.747 106.8L-205.844 105.915L-136.41 37.8591L-132.323 42.0151L-199.373 107.734L-161.212 137.383L-111.675 93.6482L-107.817 98.0088L-156.532 141.019L-106.197 180.128L-106.163 180.162L-5.3689 261.608C-4.81528 252.089 -4.33017 245.232 -4.32599 245.18L-4.31512 245.123L-2.95157 229.752L-79.6003 181.097L-76.4715 176.165L42.7952 251.872C51.1453 246.154 58.3297 234.428 61.1028 229.515L-33.5346 164.238L-30.2246 159.444L2.55533 182.053L22.4962 130.346L27.9304 132.447L7.48688 185.455L63.743 224.257C64.5781 217.931 65.7713 207.246 65.5008 199.521C65.0791 187.509 66.7483 146.2 66.7533 146.081L72.575 146.309C72.5708 146.428 70.9091 187.551 71.3224 199.338C71.6873 209.732 69.548 225.047 68.9134 229.314L81.8987 248.585L138.921 159.373C141.562 149.95 142.503 135.783 142.385 121.573C142.234 103.444 140.355 85.3746 138.081 76.9633C137.66 75.4042 137.311 73.507 137.019 71.3409C136.822 69.8704 136.654 68.2997 136.512 66.6472L121.301 63.7128C112.434 68.3098 40.0222 105.789 28.2677 109.825C23.246 111.55 15.321 113.501 6.82974 115.358C-5.87573 118.137 -19.949 120.723 -27.2795 121.986C-33.1897 123.005 -41.5231 123.489 -49.874 123.538C-58.9865 123.589 -68.1306 123.122 -74.1561 122.262C-85.8178 120.598 -100.219 114.817 -100.261 114.801L-98.0916 109.388C-98.0523 109.405 -84.3164 114.918 -73.3344 116.485C-67.5253 117.314 -58.6992 117.766 -49.8974 117.715C-41.8905 117.669 -33.9095 117.206 -28.2615 116.233C-21.0145 114.983 -7.07147 112.42 5.59726 109.65C13.8806 107.839 21.5768 105.947 26.3731 104.3C37.6591 100.424 107.988 64.0452 118.262 58.7209L121.493 41.8973L127.224 42.9938L124.275 58.3435L136.116 60.6282C135.666 51.5204 135.683 40.5287 135.701 30.428C135.723 17.3137 135.743 5.73755 134.753 2.27295C132.492 -5.6416 116.809 -18.9455 116.764 -18.9847L120.554 -23.4146C120.602 -23.3728 137.621 -8.94751 140.37 0.674683C141.567 4.86328 141.547 16.8494 141.522 30.428C141.504 41.788 141.483 54.2927 142.16 64.0101C142.328 66.4342 142.538 68.6429 142.796 70.5643C143.048 72.4432 143.354 74.0941 143.721 75.4568C146.093 84.2332 148.052 102.903 148.207 121.527C148.331 136.425 147.299 151.38 144.402 161.386L141.605 160.576L144.06 162.14L85.4432 253.847L106.535 285.149L101.694 288.414L65.1409 234.164C61.3625 240.541 53.4466 252.452 44.2607 257.838C38.884 260.99 19.4425 271.702 -0.597656 282.685C-1.05106 293.538 -1.3158 304.325 -1.00934 311.217L-6.83099 311.468ZM-5.00235 -378.716C-5.73547 -383.82 -6.47278 -390.57 -6.83099 -398.646C-7.11154 -404.958 -6.93036 -414.384 -6.56213 -424.161C-15.976 -419.007 -25.2271 -413.953 -32.915 -409.756C-28.5179 -405.713 -25.8809 -403.262 -25.8366 -403.22L-25.7105 -403.104L-25.597 -402.969L-5.00235 -378.716ZM24.1411 -322.145C9.83826 -345.991 -1.32245 -364.747 -2.56244 -366.831L-29.9348 -399.068C-30.5519 -399.64 -33.6164 -402.483 -38.3175 -406.808C-45.9553 -402.64 -51.2083 -399.78 -52.111 -399.288L-74.9735 -384.15L-76.5834 -386.582L-75.0879 -384.082C-75.1681 -384.035 -103.059 -367.352 -112.586 -364.32C-118.135 -362.554 -142.425 -356.028 -163.013 -350.934C-177.086 -347.452 -189.542 -344.616 -193.432 -344.35C-198.648 -343.995 -208.119 -348.1 -217.316 -353.836C-220.368 -355.741 -223.416 -357.835 -226.289 -360.009L-181.451 -207.642C-172.078 -210.227 -161.231 -213.215 -150.145 -216.262C-151.406 -226.731 -156.245 -267.39 -156.979 -280.612C-157.835 -296.014 -149.677 -337.893 -149.653 -338.013L-143.923 -336.918C-143.946 -336.799 -151.97 -295.59 -151.156 -280.931C-150.927 -276.79 -150.274 -269.802 -149.45 -261.877C-128.925 -266.99 -17.4949 -294.867 -9.66336 -299.422C-2.34619 -303.676 17.4769 -317.48 24.1411 -322.145ZM45.5132 -286.641C39.2548 -296.994 32.993 -307.399 27.1505 -317.13C20.1372 -312.223 0.676575 -298.689 -6.74081 -294.376C-15.3406 -289.375 -130.436 -260.602 -148.832 -256.021C-147.233 -241.16 -145.283 -224.742 -144.451 -217.827C-113.628 -226.289 -82.5972 -234.744 -77.6239 -235.86C-71.3721 -237.265 -47.2437 -243.22 -28.0795 -248.432C-16.5071 -251.58 -6.92618 -254.396 -4.69922 -255.616C0.865265 -258.668 35.9239 -280.627 45.5132 -286.641ZM315.384 -461.614C316.031 -459.355 316.822 -456.299 317.719 -452.831C320.785 -440.988 325.16 -424.091 333.583 -403.681C334.828 -400.664 336.043 -397.849 337.213 -395.229C337.892 -393.713 338.566 -392.244 339.231 -390.826C347.131 -396.682 354.997 -402.142 359.652 -404.954C370.288 -411.381 388.908 -412.381 388.962 -412.384L389.171 -412.395L389.327 -412.384C389.493 -412.372 447.398 -408.163 454.055 -404.26C458.568 -401.613 462.381 -395.589 466.974 -388.332C469.361 -384.56 471.973 -380.432 474.974 -376.333L470.271 -372.885C467.182 -377.103 464.497 -381.348 462.042 -385.226C457.864 -391.829 454.395 -397.31 451.109 -399.237C445.82 -402.337 392.401 -406.305 389.081 -406.55C387.136 -406.427 371.487 -405.284 362.665 -399.954C357.369 -396.753 347.723 -389.973 338.72 -383.151C330.958 -377.271 323.723 -371.403 320.256 -367.85C313.512 -360.938 296.598 -314.914 294.018 -307.827C301.51 -285.952 309.183 -252.28 309.212 -252.152L303.527 -250.851C303.489 -251.017 290.303 -308.869 282.281 -320.504C279.031 -325.215 273.476 -334.004 267.33 -343.727C264.77 -347.777 262.107 -351.992 259.468 -356.134C248.549 -351.475 231.178 -344.608 214.476 -338.005C193.427 -329.685 173.441 -321.783 169.285 -319.497C167.938 -318.757 166.853 -317.979 166.022 -317.175C164.833 -316.025 164.166 -314.83 163.997 -313.627C163.824 -312.408 164.138 -311.071 164.916 -309.655C165.494 -308.605 166.311 -307.531 167.36 -306.446C170.295 -303.413 175.728 -296.37 181.277 -288.773C187.885 -279.724 194.671 -269.875 197.556 -265.128C200.464 -260.347 206.446 -247.678 211.94 -236.043C216.646 -226.078 220.988 -216.881 222.534 -214.425C223.574 -212.774 227.441 -211.963 231.948 -211.018C237.896 -209.771 244.764 -208.331 250.122 -203.825C254.486 -200.156 258.885 -197.284 263.682 -195.317C268.439 -193.366 273.625 -192.292 279.609 -192.193C290.811 -192.01 297.646 -181.089 300.283 -175.857C302.397 -176.717 304.478 -177.484 306.594 -178.168C305.425 -184.872 302.08 -203.193 298.939 -212.122C295.099 -223.037 275.869 -252.031 275.814 -252.113L280.677 -255.333C280.733 -255.248 300.349 -225.671 304.442 -214.04C307.626 -204.987 310.951 -187.049 312.232 -179.763C320.344 -181.738 329.734 -182.7 343.74 -183.059C376.621 -183.902 390.872 -181.65 390.913 -181.644L390.023 -175.867C389.982 -175.873 376.126 -178.063 343.877 -177.236C313.12 -176.448 305.561 -172.6 282.574 -160.9L280.002 -159.591H279.991C269.924 -154.474 248.154 -141.995 224.198 -127.703C226.349 -123.632 230.128 -115.683 229.175 -111.68C228.48 -108.761 220.295 -101.154 210.941 -92.4617C200.939 -83.166 189.533 -72.5676 185.645 -66.7892C181.581 -60.7468 177.336 -52.9818 173.74 -44.2581C170.666 -36.8028 168.068 -28.6445 166.468 -20.2648C162.932 -1.75281 156.094 46.288 156.074 46.4266L150.298 45.6049C150.318 45.4655 157.175 -2.71393 160.737 -21.3613C162.41 -30.12 165.131 -38.6599 168.35 -46.4726C172.106 -55.5812 176.548 -63.7029 180.805 -70.0316C185.088 -76.3997 196.746 -87.2318 206.968 -96.7313C215.626 -104.777 223.202 -111.818 223.491 -113.028C224.028 -115.287 221.075 -121.265 219.212 -124.722C211.29 -119.972 203.204 -115.069 195.287 -110.208C168.179 -93.5606 143.117 -77.4384 133.564 -69.6943L129.888 -74.2152C136.812 -79.8267 151.496 -89.6176 169.153 -100.798C164.31 -107.737 159.669 -114.124 155.131 -119.014C150.382 -124.133 145.825 -127.553 141.394 -128.085C137.635 -128.536 131.081 -127.042 123.522 -124.74C127.431 -103.559 129.457 -85.0407 128.669 -76.0556L122.847 -76.5575C123.591 -85.0524 121.661 -102.649 117.933 -122.96C112.639 -121.211 107.09 -119.221 101.814 -117.331C96.5455 -115.443 91.538 -113.648 87.5274 -112.345C85.6612 -111.739 83.6121 -111.166 81.4452 -110.628L96.9505 -78.8864L94.3252 -77.608L95.8767 -75.1421C81.7066 -66.2455 24.8175 -34.4188 14.4726 -28.6311L14.4751 -28.6269L13.215 -27.9213C10.0846 -26.1686 7.59042 -25.1807 5.2265 -25.4913C2.47266 -25.8529 0.532928 -27.6616 -0.949219 -31.5162C-2.91064 -36.6141 -94.5921 -179.016 -94.8551 -179.425L-89.9469 -182.577C-89.8701 -182.457 -82.0803 -170.359 -71.0106 -153.111C-65.7358 -154.6 -52.0526 -158.514 -50.2757 -159.552C-48.1773 -160.776 -36.2517 -174.823 -36.2175 -174.863L-35.7632 -175.4L-35.1111 -175.673L29.8776 -202.886L26.6645 -209.466L31.915 -212.023L78.825 -115.992C81.3066 -116.583 83.6388 -117.216 85.7238 -117.894C90.0725 -119.307 94.8379 -121.014 99.8496 -122.811C105.397 -124.798 111.235 -126.89 116.84 -128.72C115.22 -137.009 113.328 -145.636 111.216 -154.195C104.898 -179.8 96.6641 -204.652 88.0318 -217.758C80.201 -229.647 64.6089 -255.089 48.5292 -281.653C38.778 -275.537 3.69763 -253.566 -1.89108 -250.502C-4.59567 -249.019 -14.6166 -246.038 -26.5506 -242.793C-45.5712 -237.619 -69.9359 -231.614 -76.3455 -230.176C-83.3061 -228.613 -142.913 -212.228 -179.805 -202.05L-173.63 -181.065L-117.628 -192.255L-116.487 -186.523L-171.974 -175.437L-151.051 -104.338C-122.688 -111.295 -88.8956 -119.041 -86.1142 -117.186C-82.0101 -114.451 -36.9556 -59.0274 -36.8253 -58.868L-41.3461 -55.1921C-41.4738 -55.3491 -85.9455 -110.049 -89.3566 -112.323C-90.8621 -113.326 -122.3 -105.71 -149.444 -98.874L-133.694 -45.3528L-139.287 -43.7094L-155.1 -97.4452C-169.528 -93.7903 -181.95 -90.5661 -186.754 -89.3152C-165.797 -62.492 -135.697 -25.4705 -135.569 -25.3118L-140.09 -21.636C-140.28 -21.8715 -206.775 -103.65 -211.519 -113.14C-215.269 -120.641 -226.218 -151.672 -230.438 -163.757L-309.799 -147.9L-310.94 -153.632L-226.788 -170.445L-226.623 -170.502L-226.614 -170.48L-179.37 -179.918L-185.427 -200.499C-199.339 -196.66 -208.865 -194.023 -208.963 -193.996L-209.74 -196.804L-212.524 -195.948L-252.808 -326.816L-247.237 -328.529L-207.787 -200.367C-204.016 -201.411 -196.583 -203.465 -187.072 -206.091L-234.375 -366.835C-236.539 -368.906 -238.399 -370.951 -239.816 -372.885C-242.903 -377.103 -245.589 -381.348 -248.044 -385.226C-252.222 -391.829 -255.691 -397.31 -258.977 -399.237C-264.428 -402.433 -321.007 -406.55 -321.17 -406.561L-320.759 -412.384C-320.592 -412.372 -262.688 -408.163 -256.031 -404.26C-251.518 -401.613 -247.705 -395.589 -243.112 -388.332C-240.725 -384.56 -238.113 -380.432 -235.112 -376.333C-231.054 -370.791 -222.703 -364.075 -214.234 -358.791C-205.95 -353.624 -197.787 -349.903 -193.82 -350.173C-190.295 -350.414 -178.193 -353.185 -164.406 -356.596C-146.66 -360.987 -126.301 -366.399 -117.572 -368.906L-138.133 -411.634L-141.418 -417.601L-204.425 -531.517L-199.31 -534.326L-171.545 -484.125C-164.025 -485.915 -138.943 -491.629 -129.664 -490.516C-120.776 -489.449 -62.6404 -436.987 -37.4482 -413.917C-28.6255 -418.732 -17.4582 -424.833 -6.28073 -430.956C-5.5 -448.357 -4.33185 -464.853 -4.32599 -464.934L1.4957 -464.545C1.49069 -464.47 0.478668 -450.169 -0.290375 -434.239C18.5783 -444.585 36.2654 -454.339 41.3156 -457.299C52.6809 -463.962 62.296 -482.79 62.3244 -482.845L64.9154 -481.509L67.3361 -483.142L106.535 -424.964L101.694 -421.699L65.1409 -475.949C61.3625 -469.572 53.4466 -457.66 44.2607 -452.276C38.8832 -449.123 19.4409 -438.41 -0.597656 -427.429C-1.05191 -416.576 -1.3158 -405.789 -1.00934 -398.898C-0.279541 -382.478 2.03931 -371.837 2.55283 -369.645C4.51675 -366.345 19.5486 -341.09 37.1205 -311.861C41.6855 -314.698 51.9402 -321.103 63.3314 -328.423L26.4958 -381.775L31.2905 -385.085L68.2304 -331.583C86.0737 -343.136 105.071 -355.957 108.737 -360.437C114.809 -367.859 82.9048 -411.345 82.813 -411.469L87.5174 -414.896C87.616 -414.759 122.215 -367.686 113.257 -356.737C106.326 -348.266 52.3227 -314.455 40.1223 -306.87C60.3128 -273.322 83 -235.977 92.8949 -220.954C101.934 -207.231 110.428 -181.726 116.878 -155.587C118.955 -147.17 120.822 -138.675 122.431 -130.473C130.475 -132.878 137.605 -134.422 142.079 -133.885C148.084 -133.164 153.758 -129.069 159.401 -122.987C164.21 -117.803 169.048 -111.132 174.088 -103.909C179.932 -107.582 186.039 -111.37 192.25 -115.185C200.183 -120.056 208.29 -124.971 216.236 -129.735C211.93 -136.341 199.312 -154.116 186.599 -156.784C179.034 -158.372 171.256 -163.476 164.428 -169.593C154.946 -178.087 147.156 -188.671 144.474 -194.289C140.773 -202.045 128.998 -203.589 128.964 -203.594L129.74 -209.37C129.784 -209.364 144.683 -207.416 149.748 -196.801C152.202 -191.66 159.432 -181.884 168.309 -173.931C174.464 -168.418 181.341 -163.845 187.785 -162.492C202.7 -159.363 216.677 -139.713 221.235 -132.725C245.295 -147.077 267.191 -159.626 277.356 -164.793L277.353 -164.797L279.925 -166.106C285.672 -169.031 290.49 -171.483 294.941 -173.531C292.752 -177.862 287.494 -186.241 279.517 -186.371C272.767 -186.482 266.888 -187.704 261.468 -189.929C256.09 -192.135 251.198 -195.32 246.378 -199.373C242.16 -202.919 236.051 -204.2 230.761 -205.309C224.948 -206.528 219.961 -207.574 217.602 -211.32C215.851 -214.101 211.443 -223.437 206.666 -233.555C201.233 -245.06 195.317 -257.589 192.58 -262.091C189.721 -266.793 183.05 -276.48 176.574 -285.348C171.189 -292.722 165.947 -299.524 163.182 -302.381C161.753 -303.858 160.623 -305.354 159.802 -306.847C158.408 -309.38 157.868 -311.933 158.22 -314.426C158.573 -316.934 159.808 -319.272 161.959 -321.353C163.176 -322.532 164.68 -323.624 166.476 -324.612C168.996 -325.998 176.34 -329.073 186.007 -332.971C185.291 -334.771 184.297 -337.278 183.182 -340.085C177.497 -354.407 168.282 -377.619 166.609 -380.507C164.84 -383.564 164.832 -386.165 166.467 -388.64C167.761 -390.601 170.139 -392.219 173.547 -393.802C178.591 -396.145 211.109 -406.987 221.702 -410.501C216.585 -420.379 212.914 -432.593 213.713 -447.98L219.535 -447.683C218.124 -420.522 232.06 -403.749 241.494 -392.394C242.936 -390.659 244.284 -389.037 245.221 -387.843C248.958 -383.088 255.121 -373.738 261.703 -363.463L261.884 -363.544C274.664 -369.282 280.64 -378.689 286.006 -387.136C288.918 -391.721 291.664 -396.045 295.254 -399.595L299.364 -395.44C296.23 -392.341 293.662 -388.297 290.937 -384.007C285.216 -375.001 278.852 -364.983 264.869 -358.503C267.355 -354.596 269.854 -350.642 272.262 -346.832C278.383 -337.149 283.914 -328.397 287.074 -323.814C288.276 -322.071 289.569 -319.438 290.905 -316.194C296.583 -331.381 309.76 -365.439 316.078 -371.914C319.672 -375.598 326.802 -381.419 334.47 -387.253C333.651 -388.982 332.792 -390.846 331.893 -392.855C330.704 -395.513 329.469 -398.38 328.195 -401.467C319.621 -422.243 315.187 -439.367 312.08 -451.37C311.266 -454.516 310.546 -457.291 309.768 -460.014L315.384 -461.614Z" fill="white"/>
<path fill-rule="evenodd" clip-rule="evenodd" d="M102.024 42.8424C95.9941 42.4616 90.3938 42.6562 85.276 43.1965C74.5253 44.3288 65.8637 46.9818 59.8016 49.0026C54.5878 50.7403 42.056 52.0914 27.516 53.6579C9.44055 55.6069 -11.8447 57.9016 -24.379 61.3478C0.171112 75.5627 33.2525 106.674 42.3908 115.458C64.9268 100.232 83.2678 84.7139 90.4856 72.2977C94.9412 64.6345 98.7664 54.3067 102.024 42.8424ZM-81.3724 143.102C-79.4168 150.073 -77.6633 157.654 -76.1144 165.622C-75.6075 168.229 -75.1224 170.881 -74.6581 173.567C-51.1259 167.535 -12.5536 149.411 21.8922 128.55C26.4438 125.794 30.9186 122.991 35.2732 120.168C23.8553 109.263 -11.4297 76.4771 -34.0442 65.5981C-47.9863 77.0223 -76.5302 133.415 -81.3724 143.102ZM-133.836 14.2364C-131.331 55.4566 -113.746 82.2489 -100.059 103.101C-97.5808 106.878 -95.2294 110.459 -92.9456 114.178C-90.0323 118.921 -87.3636 124.878 -84.9413 131.74C-75.9357 114.249 -55.6809 76.3577 -42.0728 61.9098C-51.2954 57.4498 -60.8145 51.8935 -71.086 45.897C-89.1839 35.3321 -109.647 23.386 -133.836 14.2364ZM-82.8145 175.317C-83.2871 172.568 -83.7831 169.855 -84.3016 167.188C-85.2335 162.391 -86.2372 157.749 -87.3127 153.318L-101.911 177.8C-95.3288 177.222 -88.8875 176.414 -82.8145 175.317ZM127.518 -70.4869C126.169 -71.8372 124.303 -72.6722 122.242 -72.6722C120.18 -72.6722 118.314 -71.8372 116.965 -70.4869C115.614 -69.1367 114.779 -67.2703 114.779 -65.2086C114.779 -63.1477 115.614 -61.2814 116.965 -59.9312C118.314 -58.5817 120.18 -57.7458 122.242 -57.7458C124.303 -57.7458 126.169 -58.5817 127.518 -59.9312C128.868 -61.2814 129.703 -63.1477 129.703 -65.2086C129.703 -67.2703 128.868 -69.1367 127.518 -70.4869ZM38.7209 -101.846C29.004 -92.4928 15.825 -85.3373 2.69702 -78.211C-2.25626 -75.5214 -7.20367 -72.8359 -12.1561 -69.9016C-22.7532 -63.6212 -47.4594 -46.163 -71.6296 -29.0839C-93.804 -13.4143 -115.531 1.93961 -126 8.35272C-103.24 17.4622 -84.0135 28.686 -66.8784 38.6881C-55.2075 45.5021 -44.516 51.7423 -34.6596 56.1998C-22.9519 50.7194 4.22342 47.7892 26.635 45.3726C40.7358 43.8537 52.8877 42.5435 57.1922 41.1089C63.6543 38.9545 72.8945 36.1262 84.4276 34.9112C90.4339 34.2774 97.053 34.0828 104.211 34.6473C112.561 1.45193 116.619 -37.7925 117.745 -50.0443C115.187 -50.8025 112.898 -52.1895 111.06 -54.0274C108.2 -56.8891 106.428 -60.843 106.428 -65.2086C106.428 -66.0044 106.488 -66.786 106.6 -67.55C97.8679 -71.2351 74.4059 -81.7065 38.7209 -101.846ZM-134.172 3.42514C-128.319 0.769714 -102.691 -17.3398 -76.4242 -35.9012C-52.1238 -53.0721 -27.2848 -70.6255 -16.3963 -77.0771C-11.6735 -79.8761 -6.48138 -82.6944 -1.2818 -85.5168C10.5127 -91.9199 22.3514 -98.3481 31.1616 -106.201C9.44473 -119.127 -8.59647 -133.958 -21.9249 -149.175C-35.4136 -164.575 -44.1319 -180.447 -47.0444 -195.263C-59.8777 -192.416 -98.8667 -181.674 -110.621 -154.246C-117.816 -137.457 -123.863 -111.136 -128.036 -82.3637C-132.182 -53.7802 -134.46 -22.8995 -134.172 3.42514ZM185.422 -251.334C198.358 -251.391 212.251 -251.597 225.485 -252.159C242.938 -252.901 259.114 -254.256 270.109 -256.699C287.245 -260.507 306.658 -256.033 330.52 -250.535C339.64 -248.433 349.425 -246.178 359.866 -244.206C365.373 -243.166 371.689 -241.62 378.595 -239.711C374.237 -265.323 369.17 -286.386 365.337 -294.749C362.916 -300.028 358.174 -307.651 352.115 -316.538C335.053 -315.345 323.371 -314.425 321.463 -314.026C317.89 -313.278 300.666 -307.09 281.457 -299.953C254.846 -290.066 224.65 -278.437 221.301 -276.791C219.148 -275.733 211.711 -270.529 202.393 -263.782C197.106 -259.955 191.252 -255.652 185.422 -251.334ZM-38.8455 -196.793C-36.216 -183.449 -28.1682 -168.932 -15.6623 -154.655C-2.54932 -139.683 15.4034 -125.059 37.1269 -112.348C39.1009 -114.749 40.7851 -117.286 42.1103 -119.991C48.448 -132.934 64.7866 -143.169 80.2993 -152.889C90.8655 -159.508 101.026 -165.875 106.592 -172.258C113.794 -180.52 119.812 -190.137 123.245 -200.027C125.73 -207.186 126.856 -214.477 126.074 -221.466C99.5513 -215.935 62.4519 -210.977 27.2446 -206.273C2.94836 -203.026 -20.4294 -199.902 -38.8455 -196.793ZM287.638 -28.5603C286.288 -29.9106 284.421 -30.7456 282.361 -30.7456C280.3 -30.7456 278.433 -29.9106 277.083 -28.5603C275.733 -27.2109 274.898 -25.3437 274.898 -23.2828C274.898 -21.2211 275.733 -19.3548 277.083 -18.0054C278.433 -16.6551 280.3 -15.8201 282.361 -15.8201C284.421 -15.8201 286.288 -16.6551 287.638 -18.0054C288.988 -19.3548 289.823 -21.2211 289.823 -23.2828C289.823 -25.3437 288.988 -27.2109 287.638 -28.5603ZM282.361 -39.096C286.51 -39.096 290.289 -37.4969 293.11 -34.8799L294.157 -35.5112C307.184 -43.3681 336.773 -61.2137 364.586 -60.6351C371.005 -60.5015 378.561 -59.3658 386.635 -57.598L386.643 -65.2946C386.673 -91.4824 386.699 -115.494 387.506 -132.989C388.615 -157.015 386.073 -188.076 382.109 -216.856C381.464 -221.529 380.785 -226.139 380.076 -230.645C371.938 -232.974 364.571 -234.841 358.333 -236.019C347.644 -238.038 337.818 -240.303 328.66 -242.413C305.788 -247.683 287.179 -251.972 271.904 -248.577C260.354 -246.011 243.688 -244.601 225.811 -243.842C208.643 -243.113 190.232 -242.982 174.223 -242.998C169.097 -239.168 164.32 -235.575 160.352 -232.577C155.992 -229.282 146.71 -226.195 134.24 -223.268C135.361 -214.718 134.082 -205.893 131.105 -197.32C127.3 -186.357 120.709 -175.789 112.855 -166.779C106.519 -159.511 95.823 -152.81 84.7024 -145.843C70.1766 -136.742 54.8792 -127.158 49.5794 -116.337C48.1582 -113.435 46.4297 -110.726 44.4491 -108.176C79.1312 -88.6858 101.732 -78.6394 109.965 -75.1757C110.31 -75.599 110.674 -76.0049 111.06 -76.3907C113.922 -79.2523 117.875 -81.0218 122.242 -81.0218C126.607 -81.0218 130.561 -79.2523 133.423 -76.3907C136.13 -73.6834 137.86 -69.9984 138.039 -65.9109C150.53 -65.6946 160.807 -67.586 170.649 -69.398C183.205 -71.7102 195.086 -73.8989 210.087 -71.7988C219.345 -70.5036 228.908 -68.254 237.033 -65.7856C246.339 -62.9565 253.901 -59.7591 257.184 -57.2757C261.608 -53.9322 264.815 -51.2634 268.07 -47.9466C270.714 -45.252 273.325 -42.1848 276.602 -38.0146C278.387 -38.7127 280.329 -39.096 282.361 -39.096ZM276.474 -8.60196C270.845 0.401459 258.105 21.8019 251.654 40.8199C281.305 44.7739 307.069 65.8612 328.978 83.7988C337.314 90.6235 345.075 96.9774 352.094 101.583C355.791 104.01 360.034 106.789 364.701 109.799C372.242 103.132 377.505 95.7448 379.237 87.6115C385.803 56.806 386.5 1.54797 386.619 -49.0806C378.394 -50.9661 370.752 -52.1853 364.423 -52.3172C339.047 -52.8458 310.869 -35.8502 298.462 -28.3666L297.519 -27.7987C297.945 -26.3683 298.174 -24.8519 298.174 -23.2828C298.174 -18.9164 296.404 -14.9633 293.541 -12.1016C290.681 -9.23911 286.727 -7.46964 282.361 -7.46964C280.28 -7.46964 278.293 -7.87131 276.474 -8.60196ZM243.103 40.121C249.761 19.3744 264.056 -4.46265 269.824 -13.6448C267.77 -16.3136 266.548 -19.6554 266.548 -23.2828C266.548 -26.9662 267.807 -30.3556 269.92 -33.0445C266.903 -36.8773 264.508 -39.6872 262.134 -42.1072C259.248 -45.0482 256.297 -47.4966 252.162 -50.6221C249.582 -52.5728 243.001 -55.2791 234.618 -57.8268C226.913 -60.1675 217.807 -62.3068 208.946 -63.5469C195.245 -65.4633 184.015 -63.3965 172.149 -61.2104C161.424 -59.2355 150.201 -57.1705 136.12 -57.6248C135.394 -56.2995 134.483 -55.0879 133.423 -54.0274C131.435 -52.04 128.921 -50.5795 126.107 -49.8714C125.047 -38.2451 121.014 1.33167 112.503 35.6218C116.672 36.2731 120.998 37.1917 125.467 38.4334C142.708 43.2224 167.286 42.0917 192.993 40.9077C209.722 40.1378 226.921 39.3461 243.103 40.121ZM229.26 156.784C227.91 155.434 226.043 154.599 223.983 154.599C221.921 154.599 220.055 155.434 218.704 156.784C217.354 158.133 216.519 160 216.519 162.061C216.519 164.122 217.354 165.989 218.704 167.339C220.055 168.689 221.921 169.524 223.983 169.524C226.043 169.524 227.91 168.689 229.26 167.339C230.609 165.989 231.445 164.122 231.445 162.061C231.445 160 230.609 158.133 229.26 156.784ZM223.145 146.27C224.615 134.71 228.298 111.634 232.324 89.5638C235.203 73.7782 238.254 58.5253 240.792 48.3596C225.481 47.7466 209.203 48.4965 193.352 49.2255C166.979 50.4396 141.763 51.6003 123.25 46.4573C118.798 45.2215 114.502 44.3297 110.375 43.7226C106.846 56.4152 102.648 67.9513 97.6934 76.4738C89.9596 89.7768 71.0625 105.977 47.9612 121.707C54.0191 129.04 69.3716 146.004 85.3795 150.883C105.386 156.98 186.433 157.726 208.729 157.879C209.464 155.193 210.889 152.792 212.801 150.88C215.479 148.202 219.112 146.48 223.145 146.27ZM239.039 157.22C256.148 154.048 322.652 140.478 357.803 115.271C354.043 112.836 350.597 110.579 347.528 108.564C340.104 103.691 332.191 97.2137 323.694 90.2578C302.3 72.742 277.073 52.093 249.255 48.9182C246.668 58.9036 243.492 74.6909 240.512 91.0327C236.426 113.425 232.694 136.898 231.316 148.049C232.74 148.796 234.037 149.753 235.163 150.88C236.918 152.635 238.262 154.8 239.039 157.22ZM-350.22 -244.206C-331.291 -240.63 -302.806 -231.085 -273.589 -221.293C-244.242 -211.458 -214.147 -201.372 -192.755 -197.01C-152.297 -188.761 -77.8871 -195.928 -71.0568 -196.612C-61.4433 -200.356 -52.9354 -202.502 -48.2168 -203.536C-50.6684 -222.971 -56.3364 -260.633 -62.6557 -294.108C-66.8742 -316.458 -71.3716 -336.915 -75.3646 -348.74C-77.6324 -348.669 -79.5872 -348.472 -81.1478 -348.051C-92.1282 -345.095 -167.825 -328.582 -168.044 -328.536L-168.318 -328.475L-168.679 -328.454C-169.285 -328.418 -379.948 -315.842 -388.623 -314.026L-390.319 -322.181C-381.241 -324.082 -178.8 -336.196 -169.531 -336.75C-164.611 -337.824 -93.6729 -353.316 -83.3013 -356.108C-81.729 -356.532 -79.9914 -356.788 -78.0984 -356.933C-82.6049 -373.468 -80.7195 -392.521 -78.5701 -414.207C-76.9861 -430.201 -75.2552 -447.671 -75.9232 -466.364L-67.6057 -466.658C-66.9176 -447.391 -68.6761 -429.642 -70.286 -413.391C-72.447 -391.573 -74.3317 -372.541 -69.4502 -357.045C-68.2319 -357.016 -66.9744 -356.978 -65.676 -356.939C-54.4317 -356.596 -39.9961 -356.157 -25.1605 -361.438C-0.805847 -370.107 203.901 -482.128 204.49 -482.451L208.47 -475.144C207.879 -474.821 2.52249 -362.443 -22.3883 -353.577C-38.6418 -347.792 -53.9666 -348.258 -65.9047 -348.621L-66.5803 -348.642C-62.6766 -336.12 -58.4373 -316.665 -54.4685 -295.641C-48.1525 -262.181 -42.4961 -224.702 -40.0011 -205.059C-21.8773 -208.105 1.68582 -211.254 26.1683 -214.525C82.3059 -222.027 143.357 -230.184 155.329 -239.23C166.442 -247.628 183.872 -260.668 197.501 -270.535C207.092 -277.478 214.926 -282.925 217.648 -284.261C221.193 -286.002 251.767 -297.797 278.555 -307.75C298.121 -315.019 315.789 -321.348 319.767 -322.181C321.637 -322.573 331.712 -323.397 346.604 -324.465C335.739 -339.836 322.196 -357.695 310.21 -373.5C304.042 -381.633 298.27 -389.243 293.965 -395.038C271.488 -425.299 268.943 -489.009 268.936 -489.193L277.254 -489.552C277.26 -489.375 279.71 -428.19 300.652 -399.997C305.71 -393.189 311.086 -386.098 316.831 -378.524C329.915 -361.271 344.832 -341.601 356.266 -325.144C419.113 -329.499 540.457 -336.744 540.917 -336.772L541.407 -328.454C540.958 -328.427 425.146 -321.514 361.677 -317.197C366.728 -309.599 370.691 -303.035 372.903 -298.206C377.178 -288.878 382.819 -265.256 387.455 -237.163C402.349 -232.736 419.296 -227.057 436.497 -221.293C465.844 -211.458 495.94 -201.372 517.331 -197.01L515.668 -188.855C493.768 -193.32 463.435 -203.486 433.855 -213.399C418.175 -218.654 402.709 -223.836 388.902 -228.035C389.406 -224.719 389.894 -221.356 390.361 -217.964C394.382 -188.771 396.958 -157.19 395.824 -132.63C395.016 -115.126 394.99 -91.2903 394.961 -65.2946C394.957 -62.0956 394.954 -58.864 394.949 -55.6081C404.028 -53.2667 413.473 -50.3223 422.492 -47.2452C442.442 -40.4362 460.322 -32.9902 467.348 -30.055C480.701 -24.4736 503.028 -14.8105 503.093 -14.7829L499.799 -7.14984C499.739 -7.17572 478.77 -16.2468 464.152 -22.3568C457.191 -25.2661 439.478 -32.642 419.818 -39.3515C411.64 -42.1414 403.129 -44.8194 394.931 -47.0097C394.797 3.50363 394.018 58.2473 387.393 89.3409C385.435 98.5272 379.742 106.815 371.645 114.244C382.42 121.086 394.882 128.723 407.883 135.986C429.846 148.257 453.508 159.588 473.536 164.492C514.196 174.449 523.599 176.457 523.626 176.463L521.898 184.618C521.871 184.612 512.748 182.664 471.578 172.581C450.691 167.467 426.338 155.832 403.838 143.26C389.628 135.321 376.219 127.057 364.899 119.836C327.149 148.362 255.121 162.749 239.392 165.626C239.033 167.183 238.444 168.651 237.663 169.995C269.294 190.92 277.082 219.53 277.107 219.616L277.231 220.059L277.254 220.562C277.26 220.739 279.71 281.925 300.652 310.117L293.965 315.075C272.648 286.377 269.259 227.6 268.96 221.453C267.909 218.025 259.667 193.825 231.55 175.948C229.302 177.176 226.724 177.875 223.983 177.875L223.863 177.874L210.524 232.295L210.086 234.085L208.47 234.97C207.879 235.293 2.52249 347.67 -22.3883 356.537L-25.1605 348.676C-2.03247 340.444 183.718 239.019 202.874 228.547L215.846 175.623C214.735 174.955 213.713 174.154 212.801 173.243C210.877 171.319 209.446 168.902 208.715 166.196C186.224 166.043 104.095 165.281 82.9655 158.841C64.3791 153.177 47.1829 133.911 40.993 126.357C36.1842 129.5 31.2343 132.611 26.1975 135.661C-9.18011 157.087 -49.0342 175.725 -73.3171 181.817C-70.2343 201.98 -68.3146 223.6 -67.6057 243.455C-66.9176 262.722 -68.6761 280.473 -70.286 296.723C-72.5723 319.799 -74.5496 339.76 -68.5384 355.714L-76.334 358.649C-83.0266 340.887 -80.9599 320.025 -78.5701 295.907C-76.9861 279.912 -75.2552 262.443 -75.9232 243.749C-76.6145 224.376 -78.4833 203.272 -81.4843 183.539C-125.526 191.441 -187.562 184.703 -187.747 184.683L-188.015 184.654L-188.188 184.618C-188.216 184.612 -197.338 182.664 -238.508 172.581C-259.395 167.467 -283.748 155.832 -306.248 143.26C-328.722 130.704 -349.195 117.335 -362.558 108.564L-357.992 101.583C-344.636 110.349 -324.192 123.701 -302.203 135.986C-280.241 148.257 -256.578 159.588 -236.55 164.492C-198.856 173.723 -188.028 176.121 -186.626 176.427C-183.202 176.786 -147.24 180.421 -112.028 178.513L-90.3221 142.113C-93.1769 132.539 -96.426 124.429 -100.057 118.516C-102.062 115.25 -104.485 111.558 -107.039 107.667C-121.538 85.5782 -140.246 57.0707 -142.276 12.1371C-147.217 11.743 -153.054 10.6616 -159.256 9.17105C-177.894 4.69104 -200.374 -3.37292 -210.108 -7.06799C-219.817 -10.7547 -225.821 -13.4627 -232.221 -16.3495C-236.297 -18.1883 -240.536 -20.1005 -245.934 -22.3568C-252.895 -25.2661 -270.608 -32.642 -290.269 -39.3515C-309.767 -46.0043 -331.162 -52.015 -345.663 -52.3172C-371.039 -52.8458 -399.217 -35.8502 -411.625 -28.3666C-413.173 -27.433 -414.467 -26.6522 -415.83 -25.8781L-419.94 -33.1188C-419.167 -33.5588 -417.695 -34.4465 -415.93 -35.5112C-402.902 -43.3681 -373.314 -61.2137 -345.5 -60.6351C-329.941 -60.3102 -307.706 -54.1084 -287.594 -47.2452C-267.644 -40.4362 -249.764 -32.9902 -242.739 -30.055C-237.184 -27.7344 -232.908 -25.8047 -228.796 -23.9492C-222.47 -21.095 -216.534 -18.4179 -207.172 -14.864C-197.56 -11.2148 -175.419 -3.26688 -157.331 1.08118C-151.739 2.4256 -146.601 3.43848 -142.487 3.87521C-142.807 -22.9981 -140.503 -54.4833 -136.288 -83.5386C-132.02 -112.97 -125.774 -140.036 -118.286 -157.507C-112.864 -170.16 -102.587 -179.615 -91.38 -186.588C-118.488 -184.727 -164.937 -182.844 -194.419 -188.855C-216.318 -193.32 -246.651 -203.486 -276.231 -213.399C-305.157 -223.092 -333.359 -232.544 -351.753 -236.019L-350.22 -244.206Z" fill="white"/>
<path fill-rule="evenodd" clip-rule="evenodd" d="M81.1111 -37.686C84.4177 -34.1822 90.3454 -26.8355 95.2886 -20.0975C99.3843 -14.5128 102.834 -9.29211 103.633 -6.89304C105.037 -2.67775 113.054 4.99128 114.703 6.53778L158.256 11.3184L157.992 13.8035L114.022 8.97778L113.61 8.93185L113.308 8.6546C113.278 8.62704 103.039 -0.787205 101.265 -6.1106C100.559 -8.22826 97.2434 -13.2068 93.2721 -18.6195C88.3823 -25.2848 82.5372 -32.5338 79.2907 -35.9734L81.1111 -37.686Z" fill="white"/>
<path fill-rule="evenodd" clip-rule="evenodd" d="M1.65442 9.36819C1.62018 9.31308 -10.2102 -10.1259 -11.7458 -12.1734C-12.1758 -12.7462 -12.8889 -12.9783 -13.6847 -12.9892C-14.9013 -13.0067 -16.2732 -12.5433 -17.3278 -11.9404C-18.8826 -11.0519 -28.3808 -5.79114 -28.4067 -5.77695L-29.62 -7.95893C-29.5958 -7.97312 -21.4002 -12.4957 -18.5712 -14.1123C-17.1884 -14.9023 -15.348 -15.5094 -13.6546 -15.4851C-12.1274 -15.4626 -10.7096 -14.9499 -9.7493 -13.6706C-8.15527 -11.5437 3.75364 8.02127 3.78787 8.07638L1.65442 9.36819Z" fill="white"/>
<path fill-rule="evenodd" clip-rule="evenodd" d="M234.954 8.08948L211.155 0.74527L211.889 -1.64209L235.688 5.70209L234.954 8.08948Z" fill="white"/>
<path fill-rule="evenodd" clip-rule="evenodd" d="M94.728 -18.8708C94.652 -18.8199 68.4061 -1.35667 58.0411 2.45029C47.768 6.22468 18.2012 15.5947 18.116 15.6223L17.362 13.234C17.4472 13.2081 46.9956 3.84316 57.1802 0.102173C67.2729 -3.60541 93.2735 -20.9058 93.3486 -20.9551L94.728 -18.8708Z" fill="white"/>
<path d="M112.76 27.68C117.09 27.68 120.6 24.1699 120.6 19.84C120.6 15.5101 117.09 12 112.76 12C108.43 12 104.92 15.5101 104.92 19.84C104.92 24.1699 108.43 27.68 112.76 27.68Z" fill="#FFCB01"/>
<path d="M111.38 55.5466C111.347 55.8295 111.108 56.0432 110.823 56.0432H107.23C106.921 56.0432 106.67 55.7925 106.67 55.4832V35.6909L103.322 43.9717C103.207 44.2545 102.888 44.3937 102.603 44.285L101.361 43.811C101.088 43.7072 100.941 43.4124 101.022 43.1326L104.886 29.736C105.162 28.777 106.04 28.1167 107.038 28.1167L117.987 28.1167C118.985 28.1167 119.863 28.777 120.139 29.736L124.003 43.1326C124.083 43.4124 123.936 43.7072 123.664 43.811L122.422 44.285C122.137 44.3937 121.817 44.2545 121.703 43.9717L118.355 35.6909V55.4832C118.355 55.7925 118.104 56.0432 117.795 56.0432H114.213C113.923 56.0432 113.681 55.8227 113.655 55.5345L112.639 44.4807L111.38 55.5466Z" fill="#FFCB01"/>
<path fill-rule="evenodd" clip-rule="evenodd" d="M107.72 28.1167L112.26 35.9002L117.182 28.1167L107.72 28.1167Z" fill="#F49400"/>
</g>
<defs>
<clipPath id="clip0_860_17654">
<rect width="226" height="70" fill="white"/>
</clipPath>
</defs>
</svg>
